<?xml version="1.0" encoding="UTF-8" standalone="no"?>
<!-- Created with Inkscape (http://www.inkscape.org/) -->

<svg
   version="1.1"
   id="svg1"
   width="880"
   height="880"
   viewBox="0 0 880 880"
   sodipodi:docname="cooler-with-water.svg"
   inkscape:version="1.3.2 (091e20e, 2023-11-25, custom)"
   xmlns:inkscape="http://www.inkscape.org/namespaces/inkscape"
   xmlns:sodipodi="http://sodipodi.sourceforge.net/DTD/sodipodi-0.dtd"
   xmlns="http://www.w3.org/2000/svg"
   xmlns:svg="http://www.w3.org/2000/svg">
  <defs
     id="defs1">
    <clipPath
       clipPathUnits="userSpaceOnUse"
       id="clipPath3">
      <path
         d="M 0,660 H 660 V 0 H 0 Z"
         transform="translate(-336.48141,-77.481399)"
         id="path3" />
    </clipPath>
    <clipPath
       clipPathUnits="userSpaceOnUse"
       id="clipPath5">
      <path
         d="M 0,660 H 660 V 0 H 0 Z"
         id="path5" />
    </clipPath>
    <clipPath
       clipPathUnits="userSpaceOnUse"
       id="clipPath7">
      <path
         d="M 0,660 H 660 V 0 H 0 Z"
         id="path7" />
    </clipPath>
    <clipPath
       clipPathUnits="userSpaceOnUse"
       id="clipPath9">
      <path
         d="M 0,660 H 660 V 0 H 0 Z"
         transform="translate(-220.15921,-420.45701)"
         id="path9" />
    </clipPath>
    <clipPath
       clipPathUnits="userSpaceOnUse"
       id="clipPath11">
      <path
         d="M 0,660 H 660 V 0 H 0 Z"
         transform="translate(-370.24711,-420.45701)"
         id="path11" />
    </clipPath>
    <clipPath
       clipPathUnits="userSpaceOnUse"
       id="clipPath13">
      <path
         d="M 0,660 H 660 V 0 H 0 Z"
         transform="translate(-200.7793,-391.68951)"
         id="path13" />
    </clipPath>
    <clipPath
       clipPathUnits="userSpaceOnUse"
       id="clipPath15">
      <path
         d="M 0,660 H 660 V 0 H 0 Z"
         transform="translate(-215.83981,-399.70211)"
         id="path15" />
    </clipPath>
    <clipPath
       clipPathUnits="userSpaceOnUse"
       id="clipPath17">
      <path
         d="M 0,660 H 660 V 0 H 0 Z"
         id="path17" />
    </clipPath>
    <clipPath
       clipPathUnits="userSpaceOnUse"
       id="clipPath19">
      <path
         d="M 0,660 H 660 V 0 H 0 Z"
         id="path19" />
    </clipPath>
    <clipPath
       clipPathUnits="userSpaceOnUse"
       id="clipPath21">
      <path
         d="M 0,660 H 660 V 0 H 0 Z"
         id="path21" />
    </clipPath>
    <clipPath
       clipPathUnits="userSpaceOnUse"
       id="clipPath23">
      <path
         d="M 0,660 H 660 V 0 H 0 Z"
         id="path23" />
    </clipPath>
    <clipPath
       clipPathUnits="userSpaceOnUse"
       id="clipPath25">
      <path
         d="M 0,660 H 660 V 0 H 0 Z"
         transform="translate(-228.29541,-362.29741)"
         id="path25" />
    </clipPath>
    <clipPath
       clipPathUnits="userSpaceOnUse"
       id="clipPath27">
      <path
         d="M 0,660 H 660 V 0 H 0 Z"
         id="path27" />
    </clipPath>
    <clipPath
       clipPathUnits="userSpaceOnUse"
       id="clipPath29">
      <path
         d="M 0,660 H 660 V 0 H 0 Z"
         id="path29" />
    </clipPath>
    <clipPath
       clipPathUnits="userSpaceOnUse"
       id="clipPath31">
      <path
         d="M 0,660 H 660 V 0 H 0 Z"
         id="path31" />
    </clipPath>
    <clipPath
       clipPathUnits="userSpaceOnUse"
       id="clipPath33">
      <path
         d="M 0,660 H 660 V 0 H 0 Z"
         id="path33" />
    </clipPath>
    <clipPath
       clipPathUnits="userSpaceOnUse"
       id="clipPath35">
      <path
         d="M 0,660 H 660 V 0 H 0 Z"
         transform="translate(-240.78471,-307.27931)"
         id="path35" />
    </clipPath>
    <clipPath
       clipPathUnits="userSpaceOnUse"
       id="clipPath37">
      <path
         d="M 0,660 H 660 V 0 H 0 Z"
         transform="translate(-240.65281,-308.75101)"
         id="path37" />
    </clipPath>
    <clipPath
       clipPathUnits="userSpaceOnUse"
       id="clipPath39">
      <path
         d="M 0,660 H 660 V 0 H 0 Z"
         transform="translate(-243.49801,-359.99121)"
         id="path39" />
    </clipPath>
    <clipPath
       clipPathUnits="userSpaceOnUse"
       id="clipPath41">
      <path
         d="M 0,660 H 660 V 0 H 0 Z"
         transform="translate(-282.81691,-359.99121)"
         id="path41" />
    </clipPath>
    <clipPath
       clipPathUnits="userSpaceOnUse"
       id="clipPath43">
      <path
         d="M 0,660 H 660 V 0 H 0 Z"
         transform="translate(-262.1323,-438.83591)"
         id="path43" />
    </clipPath>
    <clipPath
       clipPathUnits="userSpaceOnUse"
       id="clipPath45">
      <path
         d="M 0,660 H 660 V 0 H 0 Z"
         transform="translate(-278.8237,-514.28272)"
         id="path45" />
    </clipPath>
    <clipPath
       clipPathUnits="userSpaceOnUse"
       id="clipPath47">
      <path
         d="M 0,660 H 660 V 0 H 0 Z"
         id="path47" />
    </clipPath>
    <clipPath
       clipPathUnits="userSpaceOnUse"
       id="clipPath49">
      <path
         d="M 0,660 H 660 V 0 H 0 Z"
         transform="translate(-262.1323,-626.77932)"
         id="path49" />
    </clipPath>
    <clipPath
       clipPathUnits="userSpaceOnUse"
       id="clipPath51">
      <path
         d="M 0,660 H 660 V 0 H 0 Z"
         id="path51" />
    </clipPath>
    <clipPath
       clipPathUnits="userSpaceOnUse"
       id="clipPath53">
      <path
         d="M 0,660 H 660 V 0 H 0 Z"
         id="path53" />
    </clipPath>
    <clipPath
       clipPathUnits="userSpaceOnUse"
       id="clipPath55">
      <path
         d="M 0,660 H 660 V 0 H 0 Z"
         transform="translate(-262.1338,-573.32962)"
         id="path55" />
    </clipPath>
    <clipPath
       clipPathUnits="userSpaceOnUse"
       id="clipPath57">
      <path
         d="M 0,660 H 660 V 0 H 0 Z"
         id="path57" />
    </clipPath>
    <clipPath
       clipPathUnits="userSpaceOnUse"
       id="clipPath59">
      <path
         d="M 0,660 H 660 V 0 H 0 Z"
         id="path59" />
    </clipPath>
    <clipPath
       clipPathUnits="userSpaceOnUse"
       id="clipPath61">
      <path
         d="M 0,660 H 660 V 0 H 0 Z"
         transform="translate(-470.93951,-420.45701)"
         id="path61" />
    </clipPath>
  </defs>
  <sodipodi:namedview
     id="namedview1"
     pagecolor="#ffffff"
     bordercolor="#000000"
     borderopacity="0.25"
     inkscape:showpageshadow="2"
     inkscape:pageopacity="0.0"
     inkscape:pagecheckerboard="0"
     inkscape:deskcolor="#d1d1d1"
     inkscape:zoom="0.67272727"
     inkscape:cx="439.25676"
     inkscape:cy="440"
     inkscape:window-width="1440"
     inkscape:window-height="830"
     inkscape:window-x="-6"
     inkscape:window-y="-6"
     inkscape:window-maximized="1"
     inkscape:current-layer="g1">
    <inkscape:page
       x="0"
       y="0"
       inkscape:label="1"
       id="page1"
       width="880"
       height="880"
       margin="103.30853 199.97067 19.788 217.25467"
       bleed="0" />
  </sodipodi:namedview>
  <g
     id="g1"
     inkscape:groupmode="layer"
     inkscape:label="1">
    <g
       id="group-MC0">
      <path
         id="path2"
         d="m 0,0 c 95.584,0 173.541,2.809 173.541,6.253 0,3.443 -77.957,6.254 -173.541,6.254 -95.583,0 -173.54,-2.811 -173.54,-6.254 C -173.54,2.809 -95.583,0 0,0"
         style="fill:#d7c9c4;fill-opacity:1;fill-rule:evenodd;stroke:none"
         transform="matrix(1.3333333,0,0,-1.3333333,448.64187,776.69147)"
         clip-path="url(#clipPath3)" />
      <path
         id="path4"
         d="m 446.898,95.457 h 20.95 V 83.575 h -20.95 z m -153.687,0 h 20.95 V 83.575 h -20.95 z"
         style="fill:#2f2825;fill-opacity:1;fill-rule:evenodd;stroke:none"
         transform="matrix(1.3333333,0,0,-1.3333333,0,880)"
         clip-path="url(#clipPath5)" />
      <path
         id="path6"
         d="m 359.972,95.457 h 20.949 V 83.575 h -20.949 z m -153.686,0 h 20.951 V 83.575 h -20.951 z"
         style="fill:#2f2825;fill-opacity:1;fill-rule:evenodd;stroke:none"
         transform="matrix(1.3333333,0,0,-1.3333333,0,880)"
         clip-path="url(#clipPath7)" />
      <path
         id="path8"
         d="M 0,0 H 100.69 V -313.311 H -19.38 v 284.543 z"
         style="fill:#42a883;fill-opacity:1;fill-rule:evenodd;stroke:none"
         transform="matrix(1.3333333,0,0,-1.3333333,293.5456,319.39067)"
         clip-path="url(#clipPath9)" />
      <path
         id="path10"
         d="M 0,0 H 100.692 V -313.311 H -19.378 V -28.768 Z"
         style="fill:#42a883;fill-opacity:1;fill-rule:evenodd;stroke:none"
         transform="matrix(1.3333333,0,0,-1.3333333,493.6628,319.39067)"
         clip-path="url(#clipPath11)" />
      <path
         id="path12"
         d="M 0,0 19.38,28.768 H 169.469 L 150.09,0 Z"
         style="fill:#7ed2b1;fill-opacity:1;fill-rule:evenodd;stroke:none"
         transform="matrix(1.3333333,0,0,-1.3333333,267.70573,357.74733)"
         clip-path="url(#clipPath13)" />
      <path
         id="path14"
         d="m 0,0 h 130.765 l 8.584,12.741 H 8.583 Z"
         style="fill:#42a883;fill-opacity:1;fill-rule:evenodd;stroke:none"
         transform="matrix(1.3333333,0,0,-1.3333333,287.7864,347.06387)"
         clip-path="url(#clipPath15)" />
      <path
         id="path16"
         d="M 200.778,107.146 H 350.866 V 391.69 H 200.778 Z"
         style="fill:#4fbf95;fill-opacity:1;fill-rule:evenodd;stroke:none"
         transform="matrix(1.3333333,0,0,-1.3333333,0,880)"
         clip-path="url(#clipPath17)" />
      <path
         id="path18"
         d="m 215.475,264.739 h 120.697 v 97.558 H 215.475 Z"
         style="fill:#338e6d;fill-opacity:1;fill-rule:evenodd;stroke:none"
         transform="matrix(1.3333333,0,0,-1.3333333,0,880)"
         clip-path="url(#clipPath19)" />
      <path
         id="path20"
         d="m 215.475,264.739 h 91.617 v 97.558 h -91.617 z"
         style="fill:#42a883;fill-opacity:1;fill-rule:evenodd;stroke:none"
         transform="matrix(1.3333333,0,0,-1.3333333,0,880)"
         clip-path="url(#clipPath21)" />
      <path
         id="path22"
         d="m 285.517,344.161 h 50.655 v 18.137 h -50.655 z"
         style="fill:#d6f1e3;fill-opacity:1;fill-rule:evenodd;stroke:none"
         transform="matrix(1.3333333,0,0,-1.3333333,0,880)"
         clip-path="url(#clipPath23)" />
      <path
         id="path24"
         d="m 0,0 h 87.865 v -9.068 c 0,-4.988 -4.081,-9.069 -9.068,-9.069 H 9.068 C 4.081,-18.137 0,-14.056 0,-9.068 Z"
         style="fill:#ffffff;fill-opacity:1;fill-rule:evenodd;stroke:none"
         transform="matrix(1.3333333,0,0,-1.3333333,304.39387,396.9368)"
         clip-path="url(#clipPath25)" />
      <path
         id="path26"
         d="m 242.678,337.906 h 27.517 v 6.254 h -27.517 z"
         style="fill:#463d3b;fill-opacity:1;fill-rule:evenodd;stroke:none"
         transform="matrix(1.3333333,0,0,-1.3333333,0,880)"
         clip-path="url(#clipPath27)" />
      <path
         id="path28"
         d="m 252.683,326.651 h 7.505 v 11.255 h -7.505 z"
         style="fill:#ffffff;fill-opacity:1;fill-rule:evenodd;stroke:none"
         transform="matrix(1.3333333,0,0,-1.3333333,0,880)"
         clip-path="url(#clipPath29)" />
      <path
         id="path30"
         d="m 286.454,337.906 h 27.516 v 6.254 h -27.516 z"
         style="fill:#463d3b;fill-opacity:1;fill-rule:evenodd;stroke:none"
         transform="matrix(1.3333333,0,0,-1.3333333,0,880)"
         clip-path="url(#clipPath31)" />
      <path
         id="path32"
         d="m 296.46,326.651 h 7.505 v 11.255 h -7.505 z"
         style="fill:#ffffff;fill-opacity:1;fill-rule:evenodd;stroke:none"
         transform="matrix(1.3333333,0,0,-1.3333333,0,880)"
         clip-path="url(#clipPath33)" />
      <path
         id="path34"
         d="M 0,0 H 31.305 L 25.961,-42.54 H 5.344 Z"
         style="fill:#ffffff;fill-opacity:1;fill-rule:evenodd;stroke:none"
         transform="matrix(1.3333333,0,0,-1.3333333,321.04627,470.29427)"
         clip-path="url(#clipPath35)" />
      <path
         id="path36"
         d="m 0,0 h 31.569 c 0.811,0 1.471,-0.662 1.471,-1.472 0,-0.81 -0.66,-1.471 -1.471,-1.471 H 0 c -0.811,0 -1.471,0.661 -1.471,1.471 C -1.471,-0.662 -0.811,0 0,0"
         style="fill:#ffffff;fill-opacity:1;fill-rule:evenodd;stroke:none"
         transform="matrix(1.3333333,0,0,-1.3333333,320.8704,468.332)"
         clip-path="url(#clipPath37)" />
      <path
         id="path38"
         d="m 0,0 h 18.604 c 2.323,0 4.222,-1.899 4.222,-4.222 0,-2.321 -1.899,-4.22 -4.222,-4.22 H 0 c -2.323,0 -4.221,1.899 -4.221,4.22 C -4.221,-1.899 -2.323,0 0,0"
         style="fill:#6799d7;fill-opacity:1;fill-rule:evenodd;stroke:none"
         transform="matrix(1.3333333,0,0,-1.3333333,324.664,400.01173)"
         clip-path="url(#clipPath39)" />
      <path
         id="path40"
         d="m 0,0 h 18.605 c 2.322,0 4.222,-1.899 4.222,-4.222 0,-2.321 -1.9,-4.22 -4.222,-4.22 H 0 c -2.32,0 -4.219,1.899 -4.219,4.22 C -4.219,-1.899 -2.32,0 0,0"
         style="fill:#e9541e;fill-opacity:1;fill-rule:evenodd;stroke:none"
         transform="matrix(1.3333333,0,0,-1.3333333,377.0892,400.01173)"
         clip-path="url(#clipPath41)" />
      <path
         id="path42"
         d="M 0,0 H 169.032 L 139.083,-18.379 H 29.951 Z"
         style="fill:#8ebae7;fill-opacity:1;fill-rule:evenodd;stroke:none"
         transform="matrix(1.3333333,0,0,-1.3333333,349.50973,294.88547)"
         clip-path="url(#clipPath43)" />
      <path
         id="path44"
         d="m 0,0 v 37.049 c -4.511,0 -8.202,-3.69 -8.202,-8.201 V 8.203 C -8.202,3.69 -4.511,0 0,0 M -16.69,112.497 H 152.34 V -75.446 H -16.69 Z"
         style="fill:#6799d7;fill-opacity:1;fill-rule:evenodd;stroke:none"
         transform="matrix(1.3333333,0,0,-1.3333333,371.76493,194.28973)"
         clip-path="url(#clipPath45)" />
      <path
         id="path46"
         d="m 350.435,626.779 h 38.146 V 438.836 h -38.146 z m -56.911,0 h 23.765 V 438.836 h -23.765 z m 105.689,0 h 15.635 V 438.836 h -15.635 z"
         style="fill:#76a7de;fill-opacity:1;fill-rule:evenodd;stroke:none"
         transform="matrix(1.3333333,0,0,-1.3333333,0,880)"
         clip-path="url(#clipPath47)" />
      <path
         id="path48"
         d="M 0,0 H 169.032 L 139.083,18.379 H 29.951 Z"
         style="fill:#8ebae7;fill-opacity:1;fill-rule:evenodd;stroke:none"
         transform="matrix(1.3333333,0,0,-1.3333333,349.50973,44.294267)"
         clip-path="url(#clipPath49)" />
      <path
         id="path50"
         d="m 255.378,492.286 h 182.54 v -24.313 h -182.54 z m 0,105.356 h 182.54 V 573.33 h -182.54 z"
         style="fill:#8ebae7;fill-opacity:1;fill-rule:evenodd;stroke:none"
         transform="matrix(1.3333333,0,0,-1.3333333,0,880)"
         clip-path="url(#clipPath51)" />
      <path
         id="path52"
         d="M 393.015,467.973 H 349.95 v 24.313 h 43.065 z m -80.48,0 h -26.829 v 24.313 h 26.829 z m 110.129,0 h -17.648 v 24.313 h 17.648 z m -17.648,129.669 h 17.648 V 573.33 h -17.648 z m -55.067,0 h 43.065 V 573.33 h -43.065 z m -64.243,0 h 26.829 V 573.33 h -26.829 z"
         style="fill:#a0c9ed;fill-opacity:1;fill-rule:evenodd;stroke:none"
         transform="matrix(1.3333333,0,0,-1.3333333,0,880)"
         clip-path="url(#clipPath53)" />
      <path
         id="path54"
         d="m 0,0 16.69,-16.692 v -5.306 c -4.511,0 -8.202,-3.69 -8.202,-8.201 v -20.645 c 0,-4.513 3.691,-8.203 8.202,-8.203 v -5.306 L 0,-81.043 Z"
         style="fill:#5081ca;fill-opacity:1;fill-rule:evenodd;stroke:none"
         transform="matrix(1.3333333,0,0,-1.3333333,349.51173,115.56053)"
         clip-path="url(#clipPath55)" />
      <path
         id="path56"
         d="m 196.827,88.266 h 154.039 v 41.587 H 196.827 Z"
         style="fill:#42a883;fill-opacity:1;fill-rule:evenodd;stroke:none"
         transform="matrix(1.3333333,0,0,-1.3333333,0,880)"
         clip-path="url(#clipPath57)" />
      <path
         id="path58"
         d="m 350.869,88.266 h 125.266 v 41.587 H 350.869 Z"
         style="fill:#2e7d61;fill-opacity:1;fill-rule:evenodd;stroke:none"
         transform="matrix(1.3333333,0,0,-1.3333333,0,880)"
         clip-path="url(#clipPath59)" />
      <path
         id="path60"
         d="M 0,0 -17.943,-271.06 -120.07,-290.604 H 0 Z"
         style="fill:#3a9a78;fill-opacity:1;fill-rule:evenodd;stroke:none"
         transform="matrix(1.3333333,0,0,-1.3333333,627.91933,319.39067)"
         clip-path="url(#clipPath61)" />
    </g>
  </g>
</svg>
