<?xml version="1.0" encoding="UTF-8" standalone="no"?>
<!-- Created with Inkscape (http://www.inkscape.org/) -->

<svg
   version="1.1"
   id="svg5783"
   width="800"
   height="800"
   viewBox="0 0 800 800"
   sodipodi:docname="water-spilled-publicdomainvectors.org.svg"
   inkscape:version="1.2 (dc2aedaf03, 2022-05-15)"
   xmlns:inkscape="http://www.inkscape.org/namespaces/inkscape"
   xmlns:sodipodi="http://sodipodi.sourceforge.net/DTD/sodipodi-0.dtd"
   xmlns="http://www.w3.org/2000/svg"
   xmlns:svg="http://www.w3.org/2000/svg">
  <defs
     id="defs5787">
    <clipPath
       clipPathUnits="userSpaceOnUse"
       id="clipPath5799">
      <path
         d="M 0,600 H 600 V 0 H 0 Z"
         id="path5797" />
    </clipPath>
  </defs>
  <sodipodi:namedview
     id="namedview5785"
     pagecolor="#ffffff"
     bordercolor="#000000"
     borderopacity="0.25"
     inkscape:showpageshadow="2"
     inkscape:pageopacity="0.0"
     inkscape:pagecheckerboard="0"
     inkscape:deskcolor="#d1d1d1"
     showgrid="false"
     inkscape:zoom="1.04625"
     inkscape:cx="399.5221"
     inkscape:cy="400.4779"
     inkscape:window-width="1920"
     inkscape:window-height="1017"
     inkscape:window-x="-8"
     inkscape:window-y="-8"
     inkscape:window-maximized="1"
     inkscape:current-layer="g5791">
    <inkscape:page
       x="0"
       y="0"
       id="page5789"
       width="800"
       height="800" />
  </sodipodi:namedview>
  <g
     id="g5791"
     inkscape:groupmode="layer"
     inkscape:label="Page 1"
     transform="matrix(1.3333333,0,0,-1.3333333,0,800)">
    <g
       id="g5793">
      <g
         id="g5795"
         clip-path="url(#clipPath5799)">
        <g
           id="g5801"
           transform="translate(201.9082,124.1318)">
          <path
             d="M 0,0 C 51.011,0 92.614,8.714 92.614,19.397 92.614,30.082 51.011,38.798 0,38.798 -51.009,38.798 -92.614,30.082 -92.614,19.397 -92.614,8.714 -51.009,0 0,0"
             style="fill:#456178;fill-opacity:1;fill-rule:evenodd;stroke:none"
             id="path5803" />
        </g>
        <g
           id="g5805"
           transform="translate(355.2998,394.5371)">
          <path
             d="m 0,0 c -23.623,-14.048 -46.792,-46.39 -63.578,-84.052 -16.944,-38.011 -26.899,-80.714 -23.945,-115.126 l -36.556,-3.01 c -3.474,40.487 7.806,89.759 27.101,133.045 19.633,44.053 48.064,82.675 78.342,100.679 z"
             style="fill:#98d3df;fill-opacity:1;fill-rule:evenodd;stroke:none"
             id="path5807" />
        </g>
        <g
           id="g5809"
           transform="translate(352.2002,392.9346)">
          <path
             d="m 0,0 c -43.849,-1.638 -72.897,-19.697 -93.507,-47.3 -22.087,-29.578 -35.502,-70.399 -46.79,-114.335 l -35.407,9.032 c 12.346,48.049 27.294,93.061 52.808,127.235 26.996,36.154 64.813,59.806 121.604,61.924 z"
             style="fill:#98d3df;fill-opacity:1;fill-rule:evenodd;stroke:none"
             id="path5811" />
        </g>
        <g
           id="g5813"
           transform="translate(385.3584,569.2773)">
          <path
             d="m 0,0 124.629,-31.535 c 40.693,-10.294 40.69,-113.338 0,-123.632 L 0,-186.701 Z"
             style="fill:#456178;fill-opacity:1;fill-rule:evenodd;stroke:none"
             id="path5815" />
        </g>
        <g
           id="g5817"
           transform="translate(370.7441,380.124)">
          <path
             d="m 0,0 c 35.654,0 64.733,43.037 64.733,95.802 0,52.766 -29.079,95.803 -64.733,95.803 -35.653,0 -64.731,-43.037 -64.731,-95.803 C -64.731,43.037 -35.653,0 0,0"
             style="fill:#6babbe;fill-opacity:1;fill-rule:evenodd;stroke:none"
             id="path5819" />
        </g>
        <g
           id="g5821"
           transform="translate(430.3369,438.4619)">
          <path
             d="m 0,0 c -9.855,-34.293 -32.828,-58.338 -59.595,-58.338 -26.765,0 -49.737,24.045 -59.591,58.338 z"
             style="fill:#98d3df;fill-opacity:1;fill-rule:evenodd;stroke:none"
             id="path5823" />
        </g>
        <g
           id="g5825"
           transform="translate(336.666,401.0254)">
          <path
             d="m 0,0 c -43.851,-1.637 -72.898,-19.697 -93.509,-47.3 -22.085,-29.579 -35.501,-70.399 -46.79,-114.337 l -35.406,9.035 c 12.345,48.049 27.294,93.06 52.809,127.234 26.996,36.154 64.811,59.805 121.602,61.925 z"
             style="fill:#98d3df;fill-opacity:1;fill-rule:evenodd;stroke:none"
             id="path5827" />
        </g>
        <g
           id="g5829"
           transform="translate(382.4883,400.4941)">
          <path
             d="m 0,0 c -48.242,-8.166 -76.75,-22.956 -94.578,-43.393 l 0.039,-0.036 c -17.938,-20.585 -26.332,-48.396 -33.548,-81.494 l -35.837,7.741 c 8.383,38.457 18.539,71.239 41.72,97.837 h 0.069 c 23.291,26.726 58.487,45.714 116.117,55.471 z"
             style="fill:#98d3df;fill-opacity:1;fill-rule:evenodd;stroke:none"
             id="path5831" />
        </g>
        <g
           id="g5833"
           transform="translate(374.3945,401.334)">
          <path
             d="m 0,0 c -23.623,-14.049 -46.791,-46.39 -63.578,-84.052 -16.943,-38.012 -26.897,-80.715 -23.943,-115.128 l -36.558,-3.009 c -3.473,40.486 7.806,89.76 27.101,133.047 19.633,44.052 48.066,82.673 78.342,100.677 z"
             style="fill:#98d3df;fill-opacity:1;fill-rule:evenodd;stroke:none"
             id="path5835" />
        </g>
        <g
           id="g5837"
           transform="translate(324.7168,335.7002)">
          <path
             d="m 0,0 c 9.983,0 18.125,8.143 18.125,18.126 0,9.983 -8.142,18.125 -18.125,18.125 -9.983,0 -18.125,-8.142 -18.125,-18.125 C -18.125,8.143 -9.983,0 0,0"
             style="fill:#4e8398;fill-opacity:1;fill-rule:evenodd;stroke:none"
             id="path5839" />
        </g>
        <g
           id="g5841"
           transform="translate(110.8896,312.4727)">
          <path
             d="M 0,0 C 9.982,0 18.125,8.142 18.125,18.125 18.125,28.108 9.982,36.25 0,36.25 -9.983,36.25 -18.126,28.108 -18.126,18.125 -18.126,8.142 -9.983,0 0,0"
             style="fill:#4e8398;fill-opacity:1;fill-rule:evenodd;stroke:none"
             id="path5843" />
        </g>
        <g
           id="g5845"
           transform="translate(312.1709,249.8506)">
          <path
             d="m 0,0 c 10.093,0 18.278,-8.183 18.278,-18.278 0,-10.095 -8.185,-18.28 -18.278,-18.28 -19.914,-0.059 -37.839,-3.821 -52.769,-13.375 -14.912,-9.545 -27.499,-25.35 -36.976,-49.666 -3.641,-9.422 -14.233,-14.108 -23.653,-10.465 -1.691,0.651 -3.228,1.531 -4.593,2.585 -3.477,2.69 -9.698,7.668 -15.9,12.626 -35.778,28.61 -71.564,57.226 -109.667,41.582 -9.341,-3.838 -20.029,0.621 -23.869,9.962 -3.837,9.342 0.622,20.031 9.963,23.87 56.883,23.352 100.508,-10.242 143.877,-44.897 11.235,20.286 25.143,34.963 41.178,45.223 C -51.071,-5.457 -26.587,-0.084 0,0"
             style="fill:#456178;fill-opacity:1;fill-rule:evenodd;stroke:none"
             id="path5847" />
        </g>
        <g
           id="g5849"
           transform="translate(176.4375,276.9873)">
          <path
             d="m 0,0 c -4.946,8.827 -1.803,19.996 7.025,24.943 8.827,4.947 19.996,1.803 24.942,-7.023 13.001,-23.206 15.076,-63.907 15.289,-107.588 40.674,24.751 82.334,44.838 134.623,14.061 8.707,-5.107 11.63,-16.308 6.522,-25.014 -5.106,-8.706 -16.305,-11.627 -25.013,-6.523 -38.493,22.658 -73.803,0.707 -109.099,-21.233 -4.678,-2.909 -9.391,-5.839 -15.971,-9.766 -2.769,-1.648 -6.003,-2.595 -9.461,-2.583 -10.094,0.039 -18.246,8.254 -18.208,18.35 l 0.023,5.549 C 10.86,-68.27 11.044,-19.712 0,0"
             style="fill:#447288;fill-opacity:1;fill-rule:evenodd;stroke:none"
             id="path5851" />
        </g>
        <g
           id="g5853"
           transform="translate(133.418,291.2412)">
          <path
             d="m 0,0 c -6.729,7.561 -6.054,19.147 1.507,25.875 7.559,6.729 19.146,6.053 25.875,-1.508 17.38,-19.563 30.148,-44.121 40.098,-71.704 1.089,-3.018 2.143,-6.065 3.163,-9.143 13.092,49.527 31.922,92.704 68.374,116.37 8.47,5.499 19.804,3.092 25.303,-5.378 5.498,-8.47 3.093,-19.803 -5.377,-25.303 C 117.985,2.618 104.162,-67.769 90.346,-138.152 l -0.35,-1.779 c -1.297,-7.228 -6.893,-13.27 -14.535,-14.763 -9.936,-1.94 -19.566,4.545 -21.506,14.478 C 48.27,-111.404 41.786,-83.81 33.077,-59.667 24.676,-36.376 14.106,-15.881 0,0"
             style="fill:#4e8398;fill-opacity:1;fill-rule:evenodd;stroke:none"
             id="path5855" />
        </g>
        <g
           id="g5857"
           transform="translate(78.2964,274.7119)">
          <path
             d="M 0,0 C -9.421,3.68 -14.072,14.306 -10.393,23.727 -6.713,33.149 3.912,37.8 13.334,34.12 39.517,23.866 63.205,4.575 85.053,-21.348 99.731,-38.768 113.601,-59.231 126.87,-81.96 162.152,-17.636 202.791,40.652 298.677,36.635 308.773,36.241 316.633,27.734 316.238,17.641 315.845,7.545 307.338,-0.315 297.244,0.078 213.912,3.57 180.905,-58.215 147.895,-119.995 l -4.698,-8.779 c -1.678,-3.137 -4.279,-5.827 -7.67,-7.596 -8.945,-4.671 -19.986,-1.204 -24.656,7.74 -17.036,32.609 -34.82,61.279 -53.773,83.772 C 39.147,-23.56 20.229,-7.922 0,0"
             style="fill:#5799ae;fill-opacity:1;fill-rule:evenodd;stroke:none"
             id="path5859" />
        </g>
        <g
           id="g5861"
           transform="translate(135.0664,256.6924)">
          <path
             d="m 0,0 c -7.599,6.651 -8.37,18.206 -1.719,25.805 6.649,7.599 18.204,8.369 25.804,1.72 17.898,-15.685 31.002,-35.277 41.175,-57.232 1.308,-2.827 2.568,-5.695 3.784,-8.592 13.349,39.831 32.524,74.639 70.046,93.605 9.024,4.549 20.034,0.924 24.585,-8.101 C 168.226,38.18 164.6,27.17 155.573,22.619 115.563,2.396 102.019,-51.304 88.48,-104.99 l -0.385,-1.532 c -1.573,-6.384 -6.534,-11.705 -13.353,-13.408 -9.814,-2.45 -19.767,3.521 -22.219,13.334 -5.559,21.935 -11.922,42.988 -20.522,61.548 C 23.822,-27.393 13.589,-11.908 0,0"
             style="fill:#6babbe;fill-opacity:1;fill-rule:evenodd;stroke:none"
             id="path5863" />
        </g>
        <g
           id="g5865"
           transform="translate(106.353,282.7002)">
          <path
             d="m 0,0 c 9.983,0 18.124,8.143 18.124,18.125 0,9.983 -8.141,18.126 -18.124,18.126 -9.983,0 -18.125,-8.143 -18.125,-18.126 C -18.125,8.143 -9.983,0 0,0"
             style="fill:#6babbe;fill-opacity:1;fill-rule:evenodd;stroke:none"
             id="path5867" />
        </g>
        <g
           id="g5869"
           transform="translate(329.6807,295.001)">
          <path
             d="m 0,0 c 9.983,0 18.125,8.141 18.125,18.124 0,9.983 -8.142,18.125 -18.125,18.125 -9.983,0 -18.125,-8.142 -18.125,-18.125 C -18.125,8.141 -9.983,0 0,0"
             style="fill:#6babbe;fill-opacity:1;fill-rule:evenodd;stroke:none"
             id="path5871" />
        </g>
        <g
           id="g5873"
           transform="translate(421.2744,270.7275)">
          <path
             d="M 0,0 C 9.983,0 18.127,8.142 18.127,18.125 18.127,28.108 9.983,36.25 0,36.25 -9.983,36.25 -18.123,28.108 -18.123,18.125 -18.123,8.142 -9.983,0 0,0"
             style="fill:#5799ae;fill-opacity:1;fill-rule:evenodd;stroke:none"
             id="path5875" />
        </g>
        <g
           id="g5877"
           transform="translate(25.6045,170.3916)">
          <path
             d="m 0,0 c 9.983,0 18.126,8.142 18.126,18.125 0,9.983 -8.143,18.127 -18.126,18.127 -9.983,0 -18.125,-8.144 -18.125,-18.127 C -18.125,8.142 -9.983,0 0,0"
             style="fill:#456178;fill-opacity:1;fill-rule:evenodd;stroke:none"
             id="path5879" />
        </g>
        <g
           id="g5881"
           transform="translate(356.708,209.2305)">
          <path
             d="m 0,0 c 9.983,0 18.125,8.143 18.125,18.126 0,9.982 -8.142,18.125 -18.125,18.125 -9.983,0 -18.126,-8.143 -18.126,-18.125 C -18.126,8.143 -9.983,0 0,0"
             style="fill:#456178;fill-opacity:1;fill-rule:evenodd;stroke:none"
             id="path5883" />
        </g>
        <g
           id="g5885"
           transform="translate(387.1299,147.7363)">
          <path
             d="m 0,0 c 9.983,0 18.125,8.142 18.125,18.125 0,9.983 -8.142,18.127 -18.125,18.127 -9.983,0 -18.125,-8.144 -18.125,-18.127 C -18.125,8.142 -9.983,0 0,0"
             style="fill:#447288;fill-opacity:1;fill-rule:evenodd;stroke:none"
             id="path5887" />
        </g>
        <g
           id="g5889"
           transform="translate(215.623,306.0244)">
          <path
             d="m 0,0 c 9.982,0 18.124,8.143 18.124,18.124 0,9.983 -8.142,18.127 -18.124,18.127 -9.982,0 -18.126,-8.144 -18.126,-18.127 C -18.126,8.143 -9.982,0 0,0"
             style="fill:#5799ae;fill-opacity:1;fill-rule:evenodd;stroke:none"
             id="path5891" />
        </g>
        <g
           id="g5893"
           transform="translate(40.2007,273.6563)">
          <path
             d="M 0,0 C 9.983,0 18.125,8.142 18.125,18.125 18.125,28.108 9.983,36.25 0,36.25 -9.983,36.25 -18.125,28.108 -18.125,18.125 -18.125,8.142 -9.983,0 0,0"
             style="fill:#5799ae;fill-opacity:1;fill-rule:evenodd;stroke:none"
             id="path5895" />
        </g>
      </g>
    </g>
  </g>
</svg>
