<?xml version="1.0" encoding="UTF-8"?>
<svg xmlns="http://www.w3.org/2000/svg" version="1.1" viewBox="0 0 3438.396587 4742.785901">
  <!-- Generator: Adobe Illustrator 28.7.2, SVG Export Plug-In . SVG Version: 1.2.0 Build 154)  -->
  <g>
    <g id="Layer_1">
      <g>
        <path d="M3408.064637,364.681358c-19.092369-27.419892-43.573265-49.561135-70.190705-69.386588-50.140499-37.348434-105.451986-65.414283-162.802346-89.68097-101.621748-42.999451-207.186943-73.504844-314.459152-98.439686-108.126827-25.134068-217.343568-44.24919-327.306157-59.4081C2317.677492,18.057524,2099.670208-.128618,1881.9182.000685c-145.795465.087127-291.050412,1.178706-436.7138,8.530633-149.443681,7.677126-299.061615,23.466455-447.02248,40.864018-35.711898,4.199278-71.444883,8.184901-106.888187,14.448024-26.109109,4.613823-52.723218,5.871886-78.730217,11.202144-32.374451,6.635492-64.797738,13.093956-97.004595,20.47585-40.698644,9.326981-81.115376,19.875398-121.805141,29.244-87.117674,20.05853-173.684841,41.660366-257.351859,74.018169-47.118262,18.223323-94.521766,35.523771-139.45021,58.823187-39.149234,20.303262-76.521531,43.352397-110.114644,72.140786-24.44205,20.946999-46.263645,44.226992-62.499151,72.237346-32.59199,56.224929-32.407748,112.52644.298561,168.650369,13.662775,23.445367,31.348911,43.640969,51.178248,62.026336,25.438734,23.587433,90.271988,66.290543,93.043389,68.529196-4.242009,4.037789.672595,55.808719,3.467304,76.695784,3.624909,27.088034,8.317534,53.815352,21.395396,78.418337,6.862465,12.908049,14.532931,25.17125,23.625169,36.557636,9.302008,11.649431,15.039042,24.626292,16.763815,39.572103,2.289708,19.843766,5.033362,39.616499,9.297569,59.192781,7.503982,34.44884,14.505184,69.024208,16.070132,104.392039,1.325212,29.971534,7.057806,59.059594,16.070132,87.645983,9.024535,28.626345,21.990298,55.341455,37.759649,80.740232,6.474002,10.426329,9.779262,21.600726,11.485166,33.680795,4.469537,31.658571,9.531756,63.232789,14.353128,94.842525,10.465175,68.606888,20.925911,137.213777,31.391087,205.820665,10.575055,69.324989,21.152329,138.649978,31.730714,207.974966,10.52178,68.965384,21.051329,137.929657,31.569779,206.895041,10.51845,68.966494,21.014703,137.935207,31.545362,206.899481s21.100164,137.922998,31.637483,206.885052c10.647198,69.681264,21.285516,139.362528,31.911626,209.046013,10.51623,68.966494,21.008043,137.937427,31.518724,206.90392,9.743745,63.938681,19.49304,127.877362,29.252324,191.813823,10.582824,69.322769,21.177857,138.644428,31.77178,207.966087,10.595033,69.322769,21.204494,138.642208,31.789538,207.964977,10.475164,68.605779,20.93368,137.213777,31.386647,205.821775,10.507351,68.968713,20.968087,137.944086,31.505405,206.90725,11.909145,77.942193,23.905972,155.869958,35.796249,233.814371,1.581597,10.367505,2.661522,20.591834.740298,31.295636-2.495038,13.906952-3.648216,28.122453-4.409602,42.258043-2.425115,45.026115-2.814687,90.096625-2.185378,135.184894.738078,52.850856,6.07689,92.784956,19.701627,143.868877,16.887299,63.316411,147.410431,120.884854,223.354818,153.393602,98.91916,42.342395,201.949361,70.509244,307.126093,91.584991,44.784158,8.97348,90.002169,15.297462,135.11719,22.541915,326.185503,52.378018,743.656761,7.047817,784.265504,1.95785,70.888827-8.884689,141.259335-20.749438,211.150369-35.48548,100.971351-21.291066,200.361105-48.149352,296.917303-84.906768,43.811892-16.678353,86.74142-35.368941,128.322429-57.031821,10.250966-5.340802,19.772733-11.987948,27.347749-21.065758,9.939086-11.912475,11.048979-26.618549,12.641674-40.920623,3.705931-33.276794,4.266426-66.758918,4.339679-100.193316.174253-79.701373-4.01892-159.15191-15.922516-238.05749-1.316332-8.718205-1.200904-17.320981-.297451-26.056944,2.765852-26.750626,5.278648-53.52789,7.863588-80.297385,4.681526-48.47677,9.329755-96.95687,14.017941-145.43253,4.758109-49.1982,9.563943-98.391961,14.317612-147.590161,4.682636-48.47677,9.308668-96.95798,13.991304-145.43475,4.786966-49.560025,9.628317-99.114501,14.417502-148.674526,4.649339-48.114945,9.238744-96.23433,13.901402-144.348165,4.732581-48.835265,9.559503-97.661651,14.277656-146.499137,4.718153-48.837485,9.328646-97.686069,14.03126-146.525774,4.842461-50.284785,9.465162-100.593987,14.731602-150.834376,2.425115-23.131267,2.342983-46.382403,4.889076-69.51589,5.289747-48.043912,9.689361-96.185495,14.415282-144.291561,4.690405-47.745351,9.309777-95.497361,13.997963-143.241602,4.794735-48.829716,9.652734-97.651662,14.453019-146.480268,4.658218-47.383526,9.263162-94.771492,13.92138-142.153908,4.800285-48.828606,9.649404-97.652772,14.451909-146.481378,4.659328-47.382416,9.275371-94.770382,13.933589-142.153908,4.801394-48.828606,9.638306-97.652772,14.44081-146.481378,4.659328-47.383526,9.28203-94.769272,13.944688-142.151688,4.769208-48.465671,9.565053-96.930232,14.354238-145.394794,4.073305-41.230283,8.1455-82.462785,12.232124-123.691958,2.975622-30.01704,6.419618-59.996343,8.731523-90.064438.904562-11.76042,3.036666-22.90152,6.987883-33.947169,10.146636-28.36774,21.531912-56.309281,27.739541-85.998902,6.838047-32.707419,14.8548-65.179541,18.932544-98.406389,3.052204-24.877128,3.247545-50.02951,7.865807-74.784549,3.728129-19.985832,7.821412-39.986093,8.863601-60.364827.803562-15.722736,3.997832-30.860558,8.396336-45.955095,7.920192-27.181265,16.09011-54.282617,20.829351-82.341807,4.609383-27.284485,6.257573-54.87419,10.139977-82.20973,2.243093-15.787109,8.315314-30.892745,8.621644-47.040569.066594-3.543886,2.567181-4.798065,5.085527-6.380771,10.455186-6.571673,20.994725-13.030137,31.185756-19.996931,34.015982-23.256685,65.827718-49.069453,91.188759-81.924487,21.543011-27.909354,33.9394-58.562362,36.557636-89.691514,2.973402-35.340084-6.654915-71.295048-29.80727-104.546314ZM2874.652572,4443.551443c-.567155,17.772707-2.015565,35.518776-5.895748,53.029549-1.407344,6.350804-4.270866,10.101131-9.750405,13.20328-44.679828,25.296667-91.141034,46.783074-138.900813,65.524717-95.316449,37.405593-193.697311,64.230583-293.808495,85.0899-87.951203,18.324323-176.68599,31.650801-266.030108,40.735271-136.160489,13.844798-272.657275,18.832654-409.490359,14.466337-63.243888-2.018894-126.373458-5.641583-189.348752-11.702705-161.025408-15.498537-319.740021-42.867374-473.764228-93.708215-66.380444-21.911496-130.868522-48.366891-191.74834-83.03105-32.601979-18.56406-63.646779-34.852841-92.121069-59.41254-6.232046-5.375209-10.560626-16.059033-13.313159-23.923731-14.773778-42.204768-22.830487-85.601561-24.022511-130.27362-1.154288-43.270265-.905672-86.5372,1.6493-129.75086.275253-4.64601.608221-9.289799.980035-13.932479,7.073344,4.64268,19.655084,11.538441,37.919474,23.038036,12.128904,7.638279,24.404314,14.33981,37.03045,20.690614,70.927673,35.674161,146.572389,57.088425,223.806471,73.634701,66.314961,14.206623,133.181538,25.05915,200.5065,33.194662,70.95875,8.575029,141.906402,17.360937,213.346846,20.806043,37.709704,1.820224,75.427177,3.669304,113.116903,5.689308,122.412252,6.557244,244.907746,5.751462,367.39325,5.488418,59.254935-.127638,118.546922-2.133998,177.563915-7.555038,626.340768-57.532886,669.353963-155.407962,722.297329-184.401303,1.29595,4.813528,12.442556,118.016419,13.574646,172.967191.756947,36.742988.177583,73.43936-.991134,110.133512ZM3245.745094,707.193041c-3.875744,23.329938-4.832471,46.975086-8.077797,70.396035-4.562768,32.934947-13.581753,64.67565-22.953685,96.369737-4.350778,14.711624-7.700433,29.49428-8.630523,44.828554-.902343,14.891426-2.99005,29.635237-5.739254,44.305794-4.824702,25.740624-7.989005,51.666601-9.658284,77.841193-2.435104,38.228024-12.328685,75.211858-20.025788,112.564177-6.936827,33.668586-20.94256,64.942024-32.038154,97.193277-2.769182,8.04894-3.912371,15.821516-4.300833,24.260028-.847958,18.444192-2.964523,36.835109-4.738131,55.230465-2.016674,20.910373-4.238679,41.799657-6.345255,62.701151-4.829142,47.928483-9.703789,95.851417-14.43526,143.789889-2.491708,25.240063-4.617152,50.516752-7.093322,75.759035-4.103272,41.818526-8.401885,83.619293-12.527355,125.435599-2.526115,25.606327-4.815823,51.235963-7.331949,76.8434-4.037789,41.100425-8.239841,82.186422-12.244333,123.290177-2.601588,26.698462-4.867988,53.43022-7.476235,80.127571-4.690405,47.986198-9.572822,95.954637-14.280985,143.939725-2.409576,24.554149-4.546119,49.134936-6.933498,73.692415-4.178745,43.002781-8.490677,85.992243-12.68163,128.993914-3.877964,39.780763-7.641609,79.573735-11.511804,119.355608-4.679306,48.113835-9.411887,96.223231-14.13559,144.332627-4.012261,40.875117-8.037841,81.748014-12.0723,122.620912-2.607137,26.40434-5.844693,52.764284-7.682675,79.220789-1.583816,22.79053-3.386282,45.544434-5.662671,68.270591-4.150998,41.46003-8.275358,82.922281-12.294278,124.39452-2.448423,25.250052-4.583856,50.532291-7.028949,75.783453-4.156547,42.920649-8.511765,85.822429-12.653883,128.745298-2.57717,26.706231-4.818043,53.445758-7.385224,80.153099-3.991173,41.508866-8.189896,82.996643-12.188838,124.504399-3.0966,32.143594-5.965672,64.309385-9.036744,96.456308-4.177635,43.73198-8.481798,87.452861-12.677191,131.182622-3.852436,40.148138-7.594994,80.307374-11.456309,120.454402-4.836911,50.289224-9.763723,100.56957-14.616173,150.856574-3.907931,40.506633-7.885785,81.008826-11.596156,121.534327-2.451752,26.778374-6.021166,53.462407-7.129949,80.35066-.128748,3.115468-1.849081,4.421811-3.648216,6.133265-15.587329,14.831492-32.600869,27.805024-50.937402,39.042685-36.71635,22.500848-75.81342,39.788532-116.199074,54.630014-51.67104,18.988039-105.20781,30.377755-158.916613,41.246931-62.897602,12.728246-126.345711,22.143463-189.99138,30.099172-37.725242,4.715933-75.548155,8.723754-113.447651,12.021245-37.173626,3.235336-74.333933,6.430717-111.583032,8.751502-25.324415,1.577157-50.635511,3.143215-75.989893,4.274196-136.2515,6.075551-272.487462,3.8147-408.697896-.885694-58.48356-2.018894-116.929383-5.351901-175.356339-8.713765-34.828423-2.004466-69.438198-6.465123-104.07239-10.788154-107.155671-13.373093-213.352395-32.229055-319.051887-54.103925-35.988261-7.448488-118.621969-32.331165-158.401623-50.941841-4.098833-1.916784-4.552779-5.025593-5.179868-8.66715-4.065536-23.580774-8.227632-47.143789-12.371971-70.710134-4.64379-26.412109-9.043403-52.878603-10.732659-79.666966-1.380706-21.899287,1.795806-43.373485,7.264246-64.606836,5.15545-20.01358,10.567285-39.949467,14.718283-60.243849,7.980126-39.028256,1.802465-74.914407-20.766087-107.937035-14.350909-20.998054-28.546432-42.107098-42.475582-63.385955-11.538441-17.626201-22.937036-35.386699-31.891648-54.516804-2.996709-6.39964-1.771797-26.629618-10.577275-21.931474-3.806945,2.031187-2.193147,6.734827-1.54275,10.278713,1.722553,9.370821,5.536143,17.996905,9.620547,26.534197,15.094537,31.552021,33.998224,60.85429,53.008461,90.097735,7.720411,11.878068,15.348702,23.801642,21.812715,36.448866,11.164408,21.841572,13.566215,44.888488,10.185482,68.854394-2.798039,19.822678-7.689335,39.185861-13.872545,58.147262-14.85036,45.533335-13.943578,91.341924-3.742557,137.48903,6.656025,30.109161,9.971615,45.405973,16.583244,75.526233.382913,1.739201,1.982304,9.190992,2.788818,21.08546-10.62056-4.808054-21.237791-9.855844-31.263449-16.111198-4.487295-2.799149-38.918377-22.804959-53.386934-30.684085.640408-6.012287,1.319662-12.020135,2.073279-18.013554,1.515003-12.037893,1.193134-23.696203-.810221-35.713008-6.330826-37.991617-11.851431-76.11753-17.663937-114.194609-9.814778-64.299396-19.607359-128.602122-29.421028-192.900408-9.814778-64.300506-19.652865-128.596572-29.464313-192.897078-9.812559-64.300506-19.59404-128.605451-29.407709-192.905957-9.813669-64.298286-19.665073-128.592133-29.477632-192.892639-9.811449-64.299396-19.581831-128.605451-29.39661-192.904847-9.813669-64.299396-19.660634-128.594352-29.488731-192.891529-10.652747-69.684594-21.317703-139.368078-31.943813-209.057111-10.51623-68.970933-20.969197-137.951855-31.489867-206.921678-10.52178-68.970933-21.109043-137.930767-31.638593-206.899481-9.816998-64.299396-19.589601-128.605451-29.39106-192.905957-9.748185-63.943121-19.503029-127.884021-29.263423-191.823812-9.869163-64.659001-19.747205-129.315783-29.624138-193.973674-9.815888-64.26166-19.628447-128.524429-29.455434-192.784979-5.273099-34.483247-12.183468-68.754073-15.840384-103.445301,33.934175,8.913268,41.686448,12.778191,62.928679,22.050232,88.994502,38.848454,180.825889,69.588033,274.226663,95.791483,98.908061,27.74842,199.0703,50.001762,300.14931,68.265042,64.913167,11.728233,130.037213,22.001397,195.45316,30.494294,44.181487,5.734814,88.404039,11.013462,132.752009,15.325394,32.805089,3.190941,65.611289,6.228716,98.478532,8.759271,32.517627,2.503917,65.035255,4.733691,97.599498,6.559464,31.136921,1.745861,62.281612,3.044435,93.430742,4.43513,27.220111,1.215332,54.46131.896793,81.637025,2.139873,54.86975,2.509467,109.74394,1.300794,164.592602.865716,27.556408-.217539,55.1783-.834639,82.748027-1.875718,31.156899-1.178706,62.319348-2.459522,93.434071-4.402943,40.491094-2.529445,80.987738-5.198736,121.390041-8.824754,46.882965-4.206492,93.714874-9.067821,140.418036-15.031273,150.934267-19.275501,300.154859-46.955108,445.964753-91.245364,68.159602-20.702823,135.01508-44.97284,199.496498-75.375012,61.644533-29.063642,120.458841-62.781063,172.065508-107.912618,5.738144-5.017824,11.455199-10.072273,16.938068-15.363131,2.976731-2.872402,7.906873-6.218727,3.754766-10.768176-4.195393-4.597174-7.910203-.159825-10.919121,2.853533-6.932388,6.944597-14.207733,13.484083-21.703946,19.816019-45.851875,38.729695-97.184398,68.748955-151.0053,94.708228-102.541848,49.459025-210.650917,82.688093-320.988649,109.264467-75.482672,18.181147-151.690103,32.647485-228.46247,44.238091-50.510093,7.627181-101.125626,14.318722-151.93206,19.660634-39.986093,4.204272-79.987725,8.04228-120.091467,11.010133-33.608652,2.486159-67.215083,4.723702-100.87035,6.50175-38.041562,2.010015-76.103102,3.074402-114.161312,4.488405-56.672216,2.105466-113.335552,1.707015-170.007767,1.86018-19.988052.054385-40.0205.290792-59.956387-.865716-23.579664-1.367387-47.170427-1.199794-70.741211-2.088817-29.70516-1.120991-59.4081-2.493928-89.074414-4.359657-41.578789-2.614906-83.156468-5.387418-124.673103-8.833634-36.442207-3.024457-72.82448-6.830278-109.187884-10.719341-49.332497-5.275319-98.555115-11.441881-147.678952-18.46084-46.635459-6.663794-93.13773-14.084534-139.539001-22.203397-87.214234-15.26213-173.720357-33.802883-259.488402-55.755444-125.715292-32.178-221.499181-62.350506-340.873657-113.503226-6.199859-2.657082-39.666269-16.256513-47.611988-13.934618-1.279706-6.634937.557166-12.965763-.785804-19.415348-3.633788-17.459717-11.498485-32.833947-20.562976-47.795296-15.542933-25.654053-27.135759-53.004021-35.387809-81.802399-5.217604-18.208895-9.407448-36.674174-10.270944-55.625587-2.045532-44.852971-10.236538-88.750325-19.736107-132.468987-2.937885-13.520709-4.809164-27.209012-6.070002-40.959469-1.943422-21.214483-8.846952-40.276885-22.581871-56.823161-8.611655-10.375274-15.26768-22.020265-21.568539-33.981575-11.623903-22.07132-15.16446-46.111589-18.535203-70.229551-2.816907-20.153426-7.73817-65.644586-7.73817-66.865467,2.345203,1.295244,4.64268,2.689269,6.446255,3.638227,76.955499,40.457798,158.282864,69.576934,242.08307,91.768123,94.445183,25.009205,189.249972,48.596638,285.470983,66.080773,36.461075,6.624948,72.927699,13.520709,109.654039,18.004674,46.739788,5.705957,93.219862,13.237687,140.009596,18.56295,46.779745,5.323044,93.519533,10.915792,140.411377,15.241042,33.902773,3.127677,67.794447,6.242035,101.752715,8.76926,31.795087,2.3674,63.579076,4.689295,95.413009,6.528387,27.864958,1.610454,55.729917,3.027786,83.608194,4.374086,43.132638,2.083268,86.290804,2.972292,129.432321,4.457328,69.761177,2.401807,139.514584,1.564948,209.27354,1.85574,22.167881.093231,44.375718.283023,66.500313-.857947,26.124647-1.347409,52.257064-1.327431,78.379491-2.105466,34.796236-1.036639,69.582484-2.561632,104.348753-4.3308,37.274626-1.896806,74.533714-4.12658,111.776153-6.576112,28.187937-1.85463,56.372545-3.904601,84.497218-6.533937,54.434672-5.088857,108.874894-10.091142,163.204127-16.346495,48.587759-5.596077,97.107815-11.642771,145.512442-18.56406,76.796784-10.980165,153.286129-23.907082,229.319307-39.325707,87.857972-17.815993,174.984525-38.67753,260.834702-64.659001,73.378316-22.206727,145.521321-47.760889,215.299146-79.658087,17.163376-7.844719,34.313433-15.788219,50.763148-25.131293,3.337446-1.895696,6.60497-4.483965,11.356419-4.185404-.053275,9.639415-2.608247,18.753852-4.139899,27.978167ZM3403.689441,529.963204c-17.971378,29.120247-42.102658,52.588921-68.79224,73.634701-42.467813,33.487673-89.251997,59.82653-138.00846,82.750247-118.503211,55.715488-243.310611,92.637169-370.164652,123.314594-87.441762,21.14567-175.65046,38.47664-264.447401,52.906351-55.07619,8.951282-110.25893,17.059046-165.622583,24.0325-44.55663,5.612726-89.141008,10.861407-133.834154,15.277669-31.35779,3.09771-62.70892,6.156573-94.116655,8.732633-28.518685,2.339653-57.027381,4.669317-85.581583,6.581662-22.412057,1.500575-44.820785,2.972292-67.242831,4.325251-28.588608,1.723663-57.186096,3.042215-85.791352,4.398504-44.589927,2.112125-89.197612,3.09549-133.804187,4.483965-46.864096,1.459508-862.127098,17.069762-1369.192114-149.196175-75.772121-24.845577-151.653477-48.199297-222.563392-85.119867-34.576478-18.002455-67.626853-38.422255-97.849223-63.183954-21.183406-17.356497-40.417841-36.590932-56.168324-59.115089-11.976849-17.127859-21.24889-35.576491-26.309999-55.924148-7.767027-31.224603-3.891283-61.318225,9.4918-90.35301,10.787044-23.400971,26.20345-43.521101,44.14264-61.816567,31.87167-32.503199,69.280593-57.459129,108.767235-79.547098,28.25897-15.808197,57.35147-29.963765,87.412905-41.957262,56.3115-22.465887,112.184593-46.039446,170.217537-64.057994,37.517693-11.648876,75.816749-20.141772,113.588607-30.68575,50.372466-14.062337,100.852592-27.64742,152.026401-38.509936,57.832053-12.27652,115.984865-22.815503,174.325249-32.38777,58.294878-9.565053,116.797306-17.668932,175.370767-25.220085,35.566502-4.584965,71.263971-8.207654,106.949231-11.805925,43.244737-4.361877,86.513892-8.518979,129.818564-12.22713,113.282277-9.70046,228.603426-10.699363,341.152065-17.394789,22.107947-1.314668,44.329102-.913441,66.500313-.962277,14.627272-.029967,29.255654-.066039,43.882925-.071588,241.793388-.094341,482.771004,10.395807,722.866257,40.143143,162.070927,20.079618,322.808873,47.425147,480.573417,90.487862,80.651441,22.014161,160.044263,47.709279,236.444816,81.907839,52.837537,23.651252,103.823774,50.660483,149.522483,86.707569,22.914838,18.074598,43.968387,37.984957,60.783257,62.021897,15.213295,21.747232,25.861603,45.324676,28.445432,72.084181,3.032226,31.414394-6.60608,59.519089-22.79275,85.745847Z"/>
        <path d="M2271.80453,3840.50029c-11.76153,9.034524-18.511895,21.24334-23.133487,34.832863-5.024483,14.769338-9.456283,29.739567-14.467447,44.513344-4.739241,13.970216-13.853677,24.491995-26.456505,32.119176-13.857007,8.386347-29.217917,12.697169-44.652081,16.869254-11.437441,3.09105-22.830487,3.119908-34.485467.82465-11.115572-2.188708-22.337694-2.013345-33.486563.82798-22.091298,5.631594-40.415622,17.731641-56.944139,32.861694-21.337681,19.534106-38.4722,42.460043-53.655528,66.977566-17.061266,27.550859-30.344458,57.065117-45.07384,85.826869-6.814739,13.30761-14.655019,25.867152-24.389885,37.277956-7.954599,9.323096-17.478585,16.420858-28.697378,21.062428-15.749373,6.515068-29.767314,3.326348-42.107098-8.345281-9.926878-9.38969-14.631711-21.550781-18.162279-34.193565-4.604944-16.493001-6.015617-33.52097-6.541706-50.556708-.401781-13.042346.226418-26.075812,1.13542-39.139245,1.334091-19.18893,3.543886-38.222474,6.268672-57.24048,4.12103-28.767301,11.546211-56.844249,17.356497-85.257494,6.363013-31.118053,5.430703-61.391478-10.700473-89.819152-14.802635-26.088021-34.737412-47.336911-60.199454-63.276075-22.582981-14.136699-47.587746-23.215619-71.711257-34.13585-41.190327-18.647302-75.893332-45.454533-102.359826-82.355125-10.861407-15.142262-19.606249-31.467669-23.746148-49.838608-4.557218-20.224459,1.329651-32.817298,19.732777-42.177021,6.454024-3.281952,13.090071-6.442925,19.975843-8.592787,29.109148-9.092238,45.520017-28.336663,48.844144-58.828736,2.997819-27.498694,17.691685-47.747571,39.864005-63.357097,23.772785-16.736067,49.965136-27.868288,78.003237-35.122545,21.667319-5.606066,43.669826-7.154366,65.854355-5.694858,21.669539,1.425102,43.265825,3.965646,64.935364,5.386308,14.472997.948958,28.868301,2.334104,43.258056,4.087734,13.273203,1.617113,26.410999,4.791405,40.031599,2.602698,15.732725-2.526115,31.569779-4.399613,47.369097-6.49731,20.11569-2.669291,40.160346-5.537253,60.016321-9.990141,28.680729-6.430717,47.334691-23.854917,58.860923-50.137169,14.858129-33.876136,21.113483-69.31056,19.096809-106.156768-.775815-14.166667-3.623799-28.040321-8.831414-41.339052-3.067743-7.832511-6.731497-15.418625-12.441894-21.607385-15.06235-16.320968-31.212394-9.926878-37.929463,6.124386-2.231994,5.331923-3.880184,10.957968-5.271989,16.578463-3.957876,15.995769-10.373054,30.980426-18.448631,45.246983-10.41745,18.406455-23.967016,33.799553-43.845189,42.400109-17.480805,7.565027-33.323409,4.588295-47.312493-8.323083-6.988992-6.450695-12.884741-13.773765-17.751619-21.952562-8.376358-14.077875-14.843701-29.106928-22.023595-43.783035-20.9359-42.789681-46.439008-83.02994-69.618-124.567663-20.194492-36.188041-39.424488-72.8156-51.294787-112.820562-5.078868-17.114541-8.943513-34.45106-9.667163-52.269272-1.433981-35.294578,10.601692-66.277224,31.749582-93.983468,18.142301-23.768346,39.275762-44.755301,61.687819-64.438133,33.333398-29.272302,65.445915-59.72109,93.459599-94.258721,21.827144-26.910451,41.829625-54.878629,52.930768-88.248654,15.605087-46.912932,15.709417-94.927987,9.676042-143.193877-4.695955-37.559868-15.171119-73.817833-26.945968-109.731731-14.245469-43.447848-29.068082-86.719222-40.724172-130.982841-12.247663-46.508931-20.153426-93.569478-19.037984-141.852017.344067-14.893646,1.286365-29.718479,6.212068-43.968387,4.481745-12.965763,7.582785-15.409746,20.144547-15.98689-8.35416-4.764768-14.262117-3.722579-19.927008,3.986733-5.233143,7.122179-8.325303,15.254361-10.193252,23.869346-3.318578,15.300977-4.715933,30.790635-4.987856,46.430128-.728089,41.98168,5.227593,83.140929,14.690536,123.918376,10.923561,47.072756,25.750613,93.010092,40.093753,139.088385,16.91254,54.330343,28.98262,109.365467,26.762835,166.804618-1.526102,39.484422-10.027878,76.896675-30.63192,111.009217-25.052491,41.477789-58.465802,75.932178-93.470698,108.756136-25.157931,23.591873-51.545623,45.876292-75.024286,71.231784-16.60177,17.928092-31.373328,37.185835-42.022746,59.352606-17.152277,35.704128-17.659498,72.764545-9.054502,110.57192,9.683811,42.548835,27.782826,81.725817,48.603298,119.714103,32.108077,58.580121,67.780019,115.21127,95.637208,176.121055,6.057793,13.246566,14.504074,25.256711,25.394338,35.142523,19.134545,17.373146,40.796315,24.691776,66.11851,15.091207,15.204416-5.763671,28.185717-14.901415,38.994959-27.032539,20.093492-22.549684,31.641922-49.273673,38.05599-78.478271.934529-4.251998,1.675938-8.578358,3.030006-12.699389,2.173169-6.611629,5.473989-7.351927,10.028988-2.16207,5.8791,6.69931,8.932414,14.920283,11.130001,23.400971,6.589431,25.424305,5.914617,51.05616,1.284145,76.63918-3.699271,20.444218-9.721547,40.169226-19.915909,58.47801-8.802557,15.809307-21.587407,26.140186-39.425598,29.951556-3.189831.682584-6.345255,1.529432-9.532866,2.226444-25.193447,5.502846-50.808654,7.993445-76.42719,10.225439-11.881398,1.03442-23.779445,3.663755-35.767392,1.869059-14.380876-2.153191-28.782839-3.428458-43.333529-3.275292-22.871553.240847-45.710918-.083242-68.500339-2.648203-24.55082-2.763632-49.214849-4.498394-73.74902-.045506-38.400057,6.969014-73.85113,21.14678-105.536338,44.265838-23.056905,16.824859-37.829572,38.759662-42.278021,67.280567-1.003343,6.440706-2.560522,12.795949-3.830239,19.195589-2.109905,10.639428-7.800324,18.790478-17.441959,23.71951-6.768124,3.461754-13.880314,6.264233-20.899274,9.219876-11.065627,4.661548-22.103507,9.369712-31.282317,17.389794-9.128865,7.976797-14.783767,17.932531-15.656142,30.098062-.784694,10.924671.176473,21.651781,3.996723,32.178,5.744803,15.827066,13.358665,30.63192,22.878212,44.426773,28.835004,41.788559,67.514754,71.522576,113.485387,92.321959,21.489737,9.723767,43.666496,17.989136,64.05522,30.074754,15.754923,9.337525,29.579742,20.863757,41.434503,34.892797,25.874921,30.619711,32.79843,65.310508,23.819401,103.990258-6.558354,28.252311-13.350896,56.481314-17.388684,85.259714-2.972292,21.181186-4.738131,42.452274-6.340815,63.792175-2.219785,29.573083-.601562,58.722187,5.656012,87.552752,3.589392,16.537397,10.886934,31.750692,23.331048,43.617661,20.458646,19.509688,47.706505,22.27665,72.214039,7.852489,18.98249-11.172177,32.59421-27.533101,43.875156-46.071633,12.298718-20.21225,21.651781-41.947273,32.48655-62.91647,14.708294-28.460971,30.73514-56.088412,51.758722-80.474968,13.349786-15.484109,27.945981-29.544226,46.120469-39.433367,16.451935-8.951282,33.502102-13.492962,52.351404-8.953502,8.526193,2.054411,17.393124,1.714784,26.015878.150945,15.393098-2.792489,30.422151-7.1133,44.814125-13.223258,25.761712-10.93466,43.93842-29.121357,52.214888-56.385863,4.003382-13.187741,7.961258-26.393241,12.227684-39.497741,2.480609-7.616082,5.788089-14.961349,11.181056-21.032461,14.33426-16.141165,45.727567-20.238888,56.6256,8.4596,1.671498,4.401833,3.236446,8.87026,4.470647,13.40972,6.528387,24.020291,4.138789,48.193748.918991,72.342786-3.112138,23.343257-5.148791,46.790844-7.206531,70.24176-2.025554,23.086872-4.261987,46.154875-6.280881,69.242857-.537188,6.142145-.685913,12.324245-.865716,18.491917-.065484,2.223114.433968,4.53391,3.063303,5.088857,3.022237.637078,4.854669-1.156508,5.702627-3.809151.657056-2.056631.936749-4.243119,1.281926-6.387431,3.288611-20.394273,6.892432-40.74526,9.751515-61.200576,5.113274-36.580943,10.482934-73.149678,14.376436-109.868248,2.655972-25.053601.430638-49.896322-9.189909-73.822273-14.970229-37.23023-57.24825-37.451099-78.119776-21.418703Z"/>
        <path d="M1613.354208,2965.388984c12.916928-22.831596,24.662919-46.252546,29.924919-72.123028,3.19427-15.702758,4.148778-31.799527-3.743667-46.846338-6.763684-12.89362-17.677256-18.354291-32.260132-16.946947-15.025723,1.449519-26.30001,9.772603-36.790713,19.508579-17.004661,15.77934-29.341115,35.090358-40.12483,55.331465-18.441972,34.616434-36.140316,69.62688-54.522354,104.2755-9.531756,17.965828-19.725008,35.598689-32.879452,51.279248-2.452862,2.923457-4.456218,6.608299-9.161052,6.560574-1.942312-4.632691-1.325212-8.97792-.745848-13.227698,5.731484-42.041614,18.166719-82.10429,36.120338-120.464391,13.295401-28.409916,31.261229-54.04843,48.282539-80.24189,8.121083-12.497388,15.855923-25.240063,21.047999-39.306839,3.662645-9.922438,5.98676-19.982503,3.890173-30.748459-2.753643-14.143359-12.009036-21.97143-26.657396-21.955891-8.480688.008879-16.653935,1.931213-24.325512,5.189857-57.132821,24.263358-93.420753,66.106301-106.316592,127.320196-4.95567,23.524169-4.395174,47.586636-6.18432,71.408257-2.664852,35.498798-17.147837,64.021923-46.966207,84.290778-11.442991,7.779236-23.375444,14.690536-35.606458,21.079076-25.484239,13.312049-47.818604,30.435469-64.692298,53.921902-26.893803,37.433341-47.023921,78.38726-62.047424,121.889493-1.410673,4.083294-2.326334,8.432962-2.776951,12.731576-.732529,6.985663,6.286431-1.430651,8.116643-6.114397,16.468583-42.141504,37.468857-81.844575,64.111824-118.452156,13.663885-18.77605,30.813943-33.710762,51.375809-44.650971,12.822587-6.822509,25.671811-13.600621,38.37453-20.640669,42.882912-23.765016,65.634597-59.71887,67.794447-109.184554.692573-15.860362,1.558289-31.802857,3.025567-47.696516,5.175428-56.049566,34.059268-96.072286,81.580421-123.820705,10.31534-6.023386,21.484187-10.777055,33.944949-10.51734,8.437402.175363,10.990154,2.67928,11.248759,11.095594.287462,9.343074-3.003369,17.811553-6.833607,26.080251-7.979016,17.22553-18.693918,32.827287-29.472083,48.324715-31.013723,44.598806-53.850869,92.863587-66.606862,145.784366-4.167646,17.294343-8.687128,34.498785-8.34972,52.517888.10322,5.530594.810221,10.898033,3.142105,15.898099,4.041118,8.66715,11.794826,11.595046,20.668416,8.279797,5.296407-1.977828,9.28314-5.629374,13.088961-9.539525,14.610623-15.004635,25.146832-32.90609,34.896127-51.144951,17.289904-32.345594,33.73074-65.145134,50.629961-97.701608,10.218779-19.685051,21.122362-38.972762,35.491029-56.019599,6.581662-7.809203,13.955787-14.789316,23.10352-19.631777,18.191136-9.628317,29.696281-3.178732,30.84391,17.292123.640408,11.433002-2.006685,22.352123-5.387418,33.11031-8.014533,25.510877-20.817142,48.68543-35.023764,71.158531-18.640643,29.487621-39.50551,57.497975-57.743262,87.25641-22.493079,36.699702-42.349054,74.510406-51.436853,117.102527-3.557205,16.673913-6.714849,33.504322-13.330918,49.332497-16.991343,40.650919-44.376828,68.359382-90.543912,73.271766-11.442991,1.218662-23.046916,2.519456-33.907213,7.264246-9.742635,4.257547-17.005771,10.844759-22.010276,20.166745-6.784772,12.638345-6.053353,26.039185-3.531678,39.343466,2.932336,15.4719,9.543965,29.655215,17.255497,43.3191,11.800376,20.904823,25.541954,40.583215,38.479969,60.765499,27.74842,43.281364,41.002755,90.819165,43.332419,141.92083,1.079925,23.667345.202,47.189295-2.442873,70.636882-2.973402,26.364384-7.860258,52.374712-18.538533,76.926642-5.085527,11.693826-10.650527,23.10574-19.917019,32.221286-10.371944,10.204351-17.446399,10.269834-27.856079.00333-12.046772-11.880288-17.956949-27.118001-22.666222-42.857385-8.35638-27.921563-11.76153-56.744359-14.928053-85.583802-4.031129-36.7219-6.366343-73.621382-11.467408-110.230073-3.011138-21.609605-7.408532-42.892901-15.492988-63.263866-15.390878-38.78186-42.340175-63.524691-84.615976-69.657957-13.255445-1.922334-26.534197-3.71259-39.745247-5.910177-25.490899-4.239789-36.704141-14.930272-42.069361-40.335709-1.717004-8.133291-2.662632-16.433067-2.954534-24.797216-1.014442-29.054763.055495-58.061801,1.475047-87.075498,1.33742-27.322221,9.851405-51.854173,27.348858-73.086414,4.614933-5.600517,9.18436-11.23988,13.667215-16.946947,1.792476-2.283049,3.81137-4.84579.92787-7.657148-2.847984-2.776951-5.380758-.776925-7.683785,1.018881-23.818291,18.5685-42.362373,40.763018-48.621056,71.299487-3.660425,17.859279-3.422908,36.075942-4.33524,54.143881-.859057,17.044617-.155385,34.166927-.194231,51.255941-.029967,13.116708,1.632652,26.053614,4.499504,38.804058,5.904628,26.257834,21.7661,42.694231,48.27033,48.844144,13.827039,3.208699,27.880497,4.679306,41.901768,6.197639,37.677517,4.081074,62.738887,23.993654,76.601443,58.964143,11.24654,28.373289,14.526272,58.315966,17.671707,88.232006,3.598271,34.220202,6.138815,68.551394,9.607229,102.787135,2.37739,23.460905,5.988979,46.780854,12.945785,69.396022,6.032265,19.607359,13.969106,38.26354,29.658545,52.450185,12.202157,11.03122,29.90827,15.746043,46.432348,2.102136,3.09771-2.557192,6.08332-5.15989,8.607216-8.294226,7.560587-9.3908,13.740468-19.610689,18.637313-30.625261,16.631738-37.411143,22.136804-77.204115,24.610754-117.528725,1.220882-19.914799.802452-39.888423-1.296354-59.806552-3.640447-34.537632-11.420793-67.886568-26.519769-99.383095-11.831453-24.678457-27.183485-47.187075-42.092669-69.986485-9.944636-15.206636-19.771623-30.465436-26.112438-47.662109-3.157644-8.567259-5.685979-17.272145-5.591638-26.447626.162044-15.748263,6.69931-24.281116,21.935913-28.201256,6.627167-1.703685,13.489632-2.836885,20.312141-3.374073,45.140434-3.557205,77.085356-27.137979,99.527381-65.203958,11.012352-18.681709,17.134519-39.180311,21.619594-60.220541,6.0811-28.518685,14.407513-56.253786,28.035882-82.194191,13.022367-24.786117,27.635211-48.612177,43.058275-71.969862,16.212198-24.55304,33.482124-48.422385,47.997297-74.078658Z"/>
        <path d="M2833.152689,4274.369588c-1.415149.569869-2.785657,1.247634-4.037492,1.940574-265.186511,146.791259-558.345163,194.556463-857.35869,209.256215-65.14381,3.202523-130.382576,4.472007-195.601656,3.805642-275.470835-2.814579-545.973803-39.060796-808.533813-124.821739-51.893201-16.950068-103.789381-35.860299-149.406683-65.848143-4.908087-3.226473-10.105621-6.699992-15.978013-6.820193-5.872392-.120201-12.219458,4.858067-11.096393,10.623322.767725,3.941101,4.480015,6.505142,7.89987,8.609134,127.941241,78.712882,277.38335,117.091988,423.862016,143.823428,507.926359,92.693381,864.08412,68.698436,1171.441701,9.052941,82.707673-16.050181,162.207719-44.829083,240.801562-74.566716,70.058852-26.50824,138.749599-55.999375,202.132466-96.292746,6.344932-4.033559,13.370494-12.158906,8.442953-17.837559-3.013038-3.472322-8.020866-2.755185-12.567826-.924161Z"/>
        <path d="M2941.313819,2611.95818c-3.226457-.129857-4.240899,2.37628-4.862439,4.921263-.947848,3.875744-1.842421,7.771467-2.544983,11.697156-4.750339,26.547516-12.728246,51.970711-23.521949,76.789015-18.393137,42.28912-33.181343,85.970045-47.794186,129.714234-9.060052,27.12244-6.785882,51.023973,12.941345,72.874425,8.739293,9.681591,14.95802,21.393176,20.595163,33.265695,11.072287,23.31218,16.375352,48.143802,17.297673,73.634701.521649,14.424162-1.570498,28.892719-15.020174,38.970542-9.811449,7.351927-15.189987,18.243301-19.526337,29.656325-4.137679,10.885825-7.417411,22.004727-10.31534,33.245717-3.803601,14.7538-6.992322,29.645226-9.320876,44.718674-1.069936,6.927948-1.916784,7.347488-8.287567,4.186514-7.154366-3.549436-14.219941-7.290883-21.220033-11.13888-19.408688-10.668286-39.132586-20.811592-56.533479-34.780698-12.9924-10.428549-21.065758-23.784994-24.868249-39.893972-5.619385-23.801642-3.568304-47.478977,1.017771-71.128564,3.670414-18.921446,10.011229-37.119241,15.06124-55.667763,2.532774-9.306448,3.044435-18.741643.114319-27.939321-8.187676-25.699558-6.656025-51.612216-2.041092-77.55928,7.265356-40.858469,19.431996-80.359539,33.287893-119.412213,13.352005-37.632011,28.929345-74.436043,41.36014-112.407682,11.354199-34.679698,17.916993-70.309463,19.768293-106.642901,1.700355-33.382234.088791-66.83328-4.409602-99.939151-7.559477-55.641125-16.181121-111.139075-24.366578-166.694739-4.385185-29.757325-7.508422-59.676694-9.346404-89.667097-1.331871-21.735023-.964496-43.591024-.884584-65.39153.101-27.312232,3.990063-54.179397,10.538428-80.686957,8.808106-35.654183,25.105766-68.017536,43.708672-99.32871,18.446412-31.04813,24.122401-64.108495,16.625078-99.43082-1.024431-4.823592-.648177-10.048966-4.364097-15.043482-1.513893,3.113248-.958947,5.279758-.684804,7.42296,2.172059,16.992453,2.018894,33.981575-.714771,50.870808-3.19538,19.747205-12.597279,36.960527-22.683981,53.867517-7.440719,12.470751-15.05569,24.86048-21.935913,37.640891-26.81389,49.803091-35.599799,103.96584-37.12701,159.605856-.984475,35.919448,2.130993,71.712367,5.584979,107.467551,3.660425,37.888397,8.898007,75.568134,14.467447,113.193486,6.631607,44.804136,13.581753,89.591624,15.936945,134.840827,1.966729,37.795166-.976705,75.386111-9.165491,112.498693-7.93906,35.971612-21.34656,70.079716-34.546511,104.28216-21.713935,56.257116-42.315757,112.861628-52.677713,172.578278-4.180965,24.102423-7.065575,48.441254.836859,72.178522,4.994516,15.004635,3.781403,28.860532-.863496,43.544408-9.316437,29.456544-16.600661,59.440287-16.015747,90.670439.694793,37.151428,14.086754,67.802216,46.20926,88.70704,26.872715,17.489684,55.612268,31.449911,84.667031,44.76085,11.184386,5.123263,15.834835,1.981158,17.404223-10.502912,3.308589-26.317768,8.529523-52.198239,16.463034-77.549291,4.63935-14.823723,10.821451-28.445432,23.490873-38.305716,7.135498-5.553902,11.632782-13.074532,13.386412-21.858221,1.414003-7.077784,2.658192-14.212172,2.721456-21.545231.211989-24.276676-4.717043-47.55001-13.032356-70.208463-7.591664-20.682845-19.1856-39.135916-32.705199-56.308171-9.69602-12.316476-11.165517-25.508657-7.156586-39.980544.678144-2.448423,1.216442-4.939021,1.978938-7.359696,14.308733-45.38683,31.391087-89.756998,49.473453-133.742033,7.478455-18.190026,14.241029-36.456635,16.013527-56.263775,1.068826-11.955761,1.527212-23.905972,1.288585-35.8917-.051055-2.556082-.164264-5.391857-3.701491-5.535033Z"/>
        <path d="M1195.996931,2169.134423c5.036692.237517,7.699324,1.624882,9.651624,6.517288,2.825786,7.080004,7.535059,13.2055,12.550663,19.009127,16.793782,19.435326,38.000496,32.437715,61.535764,41.887339,39.945027,16.039055,81.390629,20.443108,123.901727,14.771558,16.61065-2.216455,32.742936-6.647146,47.503394-14.914734,12.668312-7.094432,25.16348-14.501854,37.673078-21.873759,26.241186-15.464131,54.655541-23.893763,85.014428-23.193421,28.15464.650397,55.17719,7.697104,80.926694,19.434216,29.363313,13.386412,48.16711,35.0726,55.310378,66.969797,6.690431,29.873864,8.336402,60.267157,10.376384,90.600516,2.214235,32.937167,4.861329,65.792201,11.743771,98.124477,5.835814,27.418782,13.769325,54.186057,27.787266,78.743536,8.743732,15.318735,19.214457,29.126906,34.8595,38.142562,13.051225,7.520631,26.489802,4.684856,35.567612-7.371905,4.876867-6.478442,7.951269-13.8226,10.249856-21.511934,3.544996-11.853651,5.284198-24.053588,6.831388-36.295701,4.510603-35.6897,5.05112-71.650213,5.820276-107.490859,1.107673-51.526754,1.158728-103.066827,4.685966-154.519219,1.116552-16.282121,3.124347-32.444374,5.828045-48.532265,2.020004-12.019025,5.024483-23.691763,11.821464-34.24129-4.808054,1.381816-6.477332,5.330813-8.417424,8.930194-4.173195,7.743719-6.428497,16.19-8.321973,24.688446-5.920166,26.584143-8.747062,53.623341-10.965737,80.702496-1.894586,23.10907-3.552766,46.266974-4.297503,69.434868-1.083255,33.72408-2.451752,67.420413-4.455108,101.103428-1.44175,24.260028-3.364084,48.460122-7.522851,72.40272-1.86018,10.700473-4.392954,21.392066-9.704899,31.065888-6.268672,11.418573-12.111146,12.8914-22.69286,5.652682-7.265356-4.971208-13.033466-11.509584-18.043521-18.722775-11.524013-16.594001-19.066841-35.045962-24.939282-54.211584-13.169983-42.979473-16.81709-87.422894-19.648425-131.939568-1.795806-28.223454-3.493941-56.429149-9.196568-84.214195-5.246461-25.564151-15.496318-48.403517-36.224668-65.324937-15.36424-12.542894-32.7951-21.435352-51.516765-27.766178-45.502258-15.386438-90.927934-17.146728-136.14939,1.210893-16.574023,6.728168-31.659681,16.208869-46.820811,25.520866-14.347579,8.812546-29.363313,16.022407-46.049435,18.963621-54.594497,9.626097-106.183405,1.420662-154.127427-26.916-13.276533-7.846939-24.283336-18.343192-32.857254-31.307845-2.842434-4.297503-2.806918-6.750366,2.68483-8.824754,7.923522-2.99338,14.64503-8.022302,19.576282-15.101196,3.547216-5.094406,4.779197-10.546198,2.013345-16.423078-2.900149-6.158793-7.775906-9.205448-14.599525-9.599459-14.550689-.839079-26.383252,6.789212-31.626384,21.566319-1.721443,4.853559-3.571634,7.626071-9.060052,6.772563-24.085775-3.743667-45.061631-18.589588-52.120547-43.508892-4.507273-15.914747,1.392915-30.855009,15.671681-39.19141,14.916954-8.707106,31.35668-11.174397,48.27033-9.770383,5.046681.419539,10.1089.679254,15.16002,1.014442,8.4596.560496,14.704964-3.203149,18.963621-10.370835,3.153204-5.306396,5.973441-10.818121,9.28092-16.022407,10.191032-16.027956,16.50188-16.995782,31.0448-4.54279,8.267588,7.080004,16.175572,14.578437,24.253369,21.879309,2.520566,2.278609,5.325264,4.532801,8.513985,1.556069,2.818017-2.630445.803562-5.450682-.92565-7.754818-8.723754-11.620573-17.548509-23.21118-28.353311-32.998211-14.299854-12.953554-30.136908-11.833673-42.943956,2.710357-5.793638,6.579442-10.591703,13.933589-14.370887,21.778309-2.764742,5.739254-6.503969,6.549475-12.27763,5.719276-19.821568-2.849094-39.153674-.158715-57.507964,7.621631-30.709613,13.016818-42.417867,43.976156-27.866068,73.95213,13.81705,28.462081,36.50769,44.502245,68.531416,46.009479ZM1230.380288,2139.424823c-2.811357,4.804724-5.905737,6.042254-9.573932,6.941267q2.845764-4.527251,9.573932-6.941267Z"/>
        <path d="M1143.701022,3110.532942c18.423104-.983365,35.717447-6.987883,49.958476-19.197809,8.55616-7.335279,12.225465-16.859265,7.987896-28.375509-2.664852-7.243158-6.70486-13.656116-10.82922-20.061305-11.890277-18.468609-21.186736-38.021584-25.104656-59.835409-1.158728-6.457354-1.887927-12.904719-.712551-19.470842.905672-5.059999,3.516139-7.594994,8.860271-7.523961,5.063329.067703,10.182153.00111,15.192207-.652617,24.080225-3.145435,43.496683-15.750483,60.910895-31.55979,11.405254-10.355296,15.183328-23.732829,13.61838-39.366773-1.610454-16.08567-6.849146-31.131372-10.680495-46.589953-5.074428-20.469745-8.87359-40.860688-5.624935-62.281612,6.472892-42.680912,40.880667-81.217486,82.072103-90.922385,19.880393-4.683746,39.678653-2.103246,59.461375.088791,23.094641,2.559412,46.20371,5.126593,69.330538,1.334091,33.83507-5.550572,55.918599-23.139037,60.373707-58.664472,1.172046-9.337525,2.597148-18.642863,3.891283-27.964849,3.719249-26.789473,15.1578-48.380209,40.921733-60.087354,24.195654-10.993484,49.495651-13.20106,75.60143-9.335305,7.289773,1.079925,14.380876,3.992283,21.841572,3.499491.357385-2.230884-.92787-2.458412-1.834652-2.8835-25.074689-11.764859-51.15716-15.397537-78.471612-10.080043-41.334613,8.04561-65.572443,31.806186-73.701294,72.868875-2.320785,11.720464-4.012261,23.564125-6.204298,35.312336-3.437337,18.433093-14.000183,30.504283-32.033714,36.31124-11.576178,3.729238-23.61518,5.131033-35.384479,4.831362-18.410895-.468375-36.749647-3.375183-55.143894-4.961219-13.746017-1.184255-27.597474-2.142092-41.282448.082132-51.624425,8.389677-84.488339,39.335696-102.185573,87.231993-9.891361,26.770605-7.517301,54.262639-1.107673,81.506058,3.40515,14.472997,7.375235,28.815026,10.677165,43.310221,3.735898,16.40199-.448397,29.725138-14.914734,39.831818-17.034628,11.901376-34.711885,20.680625-56.21383,20.434229-14.655019-.167594-22.69508,7.432949-25.37103,21.838243-.866826,4.665988-.982255,9.393019-.539408,14.121161,2.26751,24.24116,10.156625,46.689843,21.838243,67.886568,3.853546,6.993432,8.268698,13.677204,12.110036,20.676185,5.046681,9.195458,3.971195,13.136686-4.885746,19.08571-6.401859,4.299723-13.620599,6.750366-20.975856,8.87026-6.798091,1.96007-13.505171,2.419565-20.238888-.30633-5.486198-2.219785-6.506189-7.360806-8.337512-12.07119-.934529-2.406247-2.431774-4.84801-5.436253-4.499504-3.458425.401781-4.350778,3.143215-4.785856,6.286431-2.4795,17.889246,9.225426,32.251253,27.353298,31.284537Z"/>
        <path d="M1105.536262,3027.01243c5.035582-3.162083,1.218662-7.957928-.639298-11.618354-9.536195-18.780489-19.49526-37.332341-30.679646-55.208267-19.817129-31.670779-46.319139-57.676668-71.764532-84.539394-32.163572-33.953828-57.197195-72.056434-71.569191-116.938263-12.404157-38.735245-22.203397-78.159732-32.418847-117.47989-12.874752-49.560025-27.22677-98.641686-47.674318-145.703344-10.428549-24.004753-24.191215-45.606588-47.101613-59.8232-13.374203-8.299775-28.281168-13.09784-43.073814-18.082367-10.676055-3.598271-21.268868-7.385224-31.134701-12.908049-16.556265-9.267601-25.516426-23.143476-25.749504-42.39567-.115429-9.519547.851287-18.821555,4.167646-27.811684,2.88905-7.829181,5.920166-15.616186,8.502886-23.546367,7.505092-23.048025,4.212042-44.35352-10.540648-63.813263-4.206492-5.549462-8.987909-10.561736-14.246579-14.964679-11.782618-9.865833-25.425415-15.900318-40.992766-14.676107-15.88478,1.249739-30.251227,7.469576-42.826308,17.276585-7.252037,5.653792-12.933576,12.610597-15.562911,21.803836-1.731432,6.058903.581584,9.497349,7.089993,12.934686-2.212016-11.691606-1.265277-15.562911,6.163232-22.868223,12.133344-11.930233,26.927099-18.136752,43.877376-19.195589,11.365298-.709221,21.545231,2.736995,30.568656,9.451844,19.944766,14.840371,36.533218,41.57102,22.668442,73.660228-4.160987,9.630536-7.800324,19.535216-10.360845,29.791732-8.875809,35.538754,6.415178,66.292763,37.683067,80.028791,8.298665,3.644887,16.693891,7.096652,25.175689,10.289812,13.578424,5.113274,27.454298,9.484031,40.003852,17.01576,20.385394,12.233234,31.426603,31.722944,40.553248,52.574493,14.43526,32.987112,25.452052,67.197325,34.742962,101.916979,12.000157,44.848532,22.982542,89.968987,34.892797,134.843047,7.455147,28.090267,16.626188,55.615598,30.568656,81.334024,15.887,29.307819,36.857307,54.689948,59.700002,78.721338,16.749386,17.621762,33.42219,35.313446,49.088321,53.9441,18.517445,22.022485,34.099224,46.10715,50.277016,69.790034,2.47395,3.622689,4.737021,9.884702,10.611681,6.195419Z"/>
        <path d="M720.162755,3197.012428c-11.848101-26.09024-24.610754-51.811997-32.543155-79.51935-7.94017-27.733991-12.418586-55.975203-11.120012-84.833515,1.145409-25.445393,6.119947-50.359148,13.396401-74.742374,8.25205-27.652969,10.910242-55.349224,2.956753-83.569348-5.738144-20.360976-14.407513-39.515499-23.152355-58.670022-9.040074-19.80159-18.524104-39.438916-22.857124-61.018554-2.839105-14.145579-3.235336-28.221234,2.486159-41.716416,5.558341-13.111159,5.659341-25.88935.426199-39.099289-2.522785-6.368563-4.277525-13.117818-5.644913-19.844876-1.33631-6.571673,1.889037-9.852515,8.449611-8.979029,3.543886.471704,7.046707,1.708124,10.404131,3.021127,13.044565,5.104395,24.02806,13.383082,34.338961,22.668442,8.400776,7.566136,15.850373,15.962472,22.362112,25.204546,1.057727,1.500575,2.621566,3.038885,4.497284,2.036653,2.093257-1.118772,1.142079-3.042215.219759-4.667098-.357385-.631529-.691463-1.277486-1.036639-1.916784-12.399718-23.033597-30.479865-40.420061-53.092813-53.253747-5.086637-2.88794-10.667176-4.63713-16.364253-5.786979-13.118928-2.649313-22.735036,5.293077-23.387653,18.720555-.436188,8.97792,2.155411,17.357607,5.249791,25.405437,4.314152,11.222122,4.012261,21.675089-.770265,32.669683-5.956792,13.696072-6.412958,28.244542-3.937898,42.80855,2.254191,13.268764,6.061122,26.165713,11.305364,38.559882,9.047843,21.380967,18.650632,42.532186,27.473166,64.004165,7.618301,18.541862,13.252115,37.704154,12.320915,58.077339-.765826,16.771584-5.212055,32.875013-9.885812,48.899639-10.056735,34.481027-14.268777,69.603572-11.13999,105.458646,2.862412,32.80176,11.502925,64.146231,24.325512,94.409667,11.608365,27.395474,24.928183,54.039551,35.58537,81.856784,9.939086,25.940405,16.031286,52.756515,17.714992,80.405045,1.372937,22.563002-1.310783,44.919565-7.242048,66.775566-3.621579,13.340907-5.835814,26.887143-7.071124,40.353468,1.95896,20.476405,5.409616,40.468896,8.956832,60.44141.562715,3.168743,1.740311,6.729278,6.099969,6.307518,4.499504-.435078,4.460658-4.141009,4.465097-7.418521.013319-11.264298.41621-22.559673-.261935-33.787344-1.23309-20.451987.117649-40.464457,5.541693-60.365937,9.294239-34.099224,10.226549-68.579141,3.766975-103.434202-6.213178-33.51986-18.854852-64.67454-32.835057-95.460735Z"/>
        <path d="M1589.91217,1106.874171c-11.177726,1.86018-121.963855.798013-142.273776.059934-22.871553-.832419-134.39687-6.077771-167.236366-8.902447-25.98813-2.235323-52.010667-4.303053-77.892248-7.469576-60.061827-7.349707-120.06261-15.201086-180.058953-23.068004-67.289446-8.824754-133.873001-21.580748-200.083631-36.385602-47.076086-10.526219-93.947952-21.948122-141.20384-31.700747-61.126214-12.615037-123.040451-20.333229-184.570665-30.43214-44.433432-7.294213-88.273072-17.266596-131.122687-31.257899-26.575263-8.677139-52.564504-18.953632-78.574832-29.170192-4.196503-1.64819-8.338622-4.590515-13.530698-2.119894,4.036679,3.518359,9.068931,4.628251,13.558445,6.753695,61.667841,29.200159,126.194765,49.555585,193.162342,62.374843,37.034889,7.089993,74.404966,12.075629,111.611889,18.084587,64.476979,10.41523,128.20811,24.506424,191.697285,39.785203,63.130679,15.193317,126.65759,28.485388,190.837118,38.586519,36.906142,5.809177,73.891086,10.961297,110.964822,15.547373,43.52887,5.385198,86.997805,11.298705,130.57773,16.226627,35.653073,4.031129,71.381619,7.437389,107.202287,9.862504,9.024535.610441,195.609655,4.582746,228.14948,1.893476,12.99684-1.074376,26.011438-1.951191,39.021597-2.875731,2.255301-.160934,4.869098-.467265,4.799175-3.103259-.073253-2.796929-2.894599-3.045545-5.034472-2.689269Z"/>
        <path d="M1430.833514,2032.892912c2.610467-1.206453,5.143241-2.653753,7.52729-4.268646,18.055729-12.219915,35.442194-25.328854,52.178261-39.310169,10.492923-8.76593,21.689517-15.596208,36.265734-15.142262,7.315301.228638,13.022367-4.054437,17.140068-10.092252,4.558328-6.684882,9.969053-12.606158,16.835958-16.844837,17.180024-10.603912,36.071503-14.822613,56.135028-14.014611,19.457524.781364,37.812924,6.643816,55.989632,12.883631,18.450851,6.334156,36.444427,8.304215,54.744332-.736969,9.49402-4.690405,19.07683-2.720346,27.836101,2.934555,3.346326,2.158741,6.667124,4.412932,9.720438,6.959025,10.341977,8.623864,19.750535,18.221103,28.741773,28.232333,8.279797,9.219876,17.358717,17.602893,27.549749,24.620743,14.788206,10.185482,27.551969,6.789212,35.957184-9.172151,4.754779-9.030085,7.795884-18.752742,11.277617-28.293377,4.973428-13.628369,9.297569-27.559738,17.582915-39.698631,4.883527-7.154366,6.472892-7.353037,11.981288-.581584,5.031142,6.18432,9.374151,12.929136,14.040139,19.413128,6.838047,9.501789,14.554019,18.227763,24.530842,24.479787,13.115598,8.218753,32.616408,8.985689,44.35463-8.133291,3.483952-5.082197,6.880223-10.240977,9.999021-15.550702,7.53284-12.825916,14.365337-26.032526,23.247806-38.081518,9.091129-12.330904,20.574075-20.191162,35.804019-22.476431,3.579403-.537188,7.086663-1.534981,10.649418-2.199807,18.35651-3.429567,30.53314-14.208842,37.468857-31.314504,4.088844-10.087812,7.979016-20.269965,12.458542-30.184634,10.558406-23.367674,27.313342-39.966115,52.611119-46.895173,10.51845-2.880171,21.202274-4.931252,32.07478-5.633814,8.390786-.541627,16.767144-.281913,24.695106,7.212081.042176-7.991225-4.572757-9.262052-8.277577-11.020122-8.206544-3.894612-17.091233-3.164303-25.752833-2.78694-39.08819,1.700355-68.976483,18.106785-85.853506,54.717695-4.101052,8.895788-8.222083,17.813773-11.698266,26.961506-6.168782,16.231066-17.809333,25.096887-34.792907,27.377716-1.44064.193121-2.871292.452836-4.313042.635968-20.31769,2.584939-36.013788,12.649444-47.54779,29.417698-3.290831,4.784746-6.663794,9.527316-9.678262,14.485206-6.788102,11.164408-12.921367,22.755014-20.160085,33.613091-9.104447,13.658336-17.542959,14.841481-31.092526,5.447352-8.829194-6.121057-14.976888-14.724942-21.028021-23.354356-4.378525-6.242035-8.386347-12.749334-13.787083-18.213334-9.781482-9.895801-19.881502-9.619437-28.783949,1.139859-4.873537,5.891309-8.823645,12.467421-11.65387,19.608469-5.347462,13.490742-10.528439,27.046968-15.853703,40.545479-1.597135,4.046668-3.19538,8.128852-5.229813,11.96242-4.380745,8.25205-6.632717,8.894678-14.408623,4.249778-5.637143-3.368523-10.431879-7.808093-15.132273-12.391949-14.299854-13.948018-27.660738-28.857202-42.953946-41.789668-15.789329-13.354225-33.465475-17.334299-52.725438-9.345294-12.144443,5.037802-23.840489,4.708164-35.89281.759166-3.104369-1.016661-6.195419-2.079938-9.320876-3.026677-19.094589-5.783649-38.16809-11.787057-58.395878-11.879178-33.023738-.148726-62.490271,8.347501-83.789106,35.663062-2.796929,3.587172-6.270892,5.169879-10.237647,5.134362-15.717186-.138737-28.043651,7.580565-38.655332,17.681696-16.585122,15.787109-33.93385,30.658558-51.255941,45.58661-1.893476,1.631542-3.668194,3.456205-5.215384,5.416275-.945628,1.198684-.587133,2.855753.240847,4.099943.890134,1.33853,2.521676,1.806905,3.847997,1.194244Z"/>
        <path d="M1325.429253,1173.770715c-2.133213-.297451-4.33524-.174253-6.505079-.129857-11.983508.247506-23.963687.71699-35.947195.763606-56.62671.217539-113.225673.043286-169.77025-4.136569-28.171289-2.081048-56.340358-4.034459-84.47835-6.587211-38.241342-3.469524-76.32952-8.076687-114.38773-13.134467-79.453867-10.561736-158.286194-24.585226-236.470344-42.160372-71.202927-16.005758-141.738808-34.55539-209.947245-60.829872-48.526715-18.693918-96.450759-38.805168-135.52563-76.318421-1.212002,3.099929-.035517,4.602724.943409,6.038925,5.15212,7.565027,11.580617,13.935809,18.581818,19.778282,23.081322,19.264402,49.391321,33.173574,76.52819,45.543324,54.9763,25.06026,112.304462,43.503342,170.433966,59.577914,103.96695,28.749543,209.769662,48.319165,316.567948,62.745547,66.413741,8.97237,133.120494,15.329834,199.99373,19.458633,32.937167,2.033323,65.946476,3.619359,99.009061,3.223128,34.151389-.41066,68.316097.432858,102.463046-.808002,3.236446-.117649,6.4962.31188,9.609448-1.269717,2.952314-1.498355,4.485075-3.582733,4.006712-6.921289-.419539-2.932336-2.388488-4.455108-5.105505-4.833581Z"/>
        <path d="M2864.308375,3554.744065c-12.606158,14.606184-23.61851,30.365546-33.529849,46.881855-38.606497,64.326033-69.599132,132.258107-95.1988,202.68189-19.590711,53.889715-24.258918,109.220071-16.435287,166.028803,3.30304,23.985885,6.356354,48.120495,5.745913,72.559215-.902343,36.119228-12.130014,68.237294-34.799566,96.373066-8.910216,11.061188-20.193382,18.66839-33.554267,23.235597-14.843701,5.073318-30.388854,6.741486-45.771962,9.155502-16.455265,2.58161-33.041497,4.488405-49.182662,8.757051-16.097879,4.257547-27.514232,14.063447-34.13918,29.473193-3.589392,8.34972-6.833607,16.804881-9.174371,25.5808-1.306343,4.897955-2.432884,9.852515-3.382952,14.831492-.337407,1.765839.146506,3.702601,2.297477,4.366317,1.917894.592683,3.660425.006659,4.798065-1.578267,1.261948-1.75585,2.331884-3.665975,3.333007-5.588308,5.866891-11.268737,11.86253-22.474211,17.469706-33.871696,4.119921-8.373028,10.537318-13.757116,19.329886-16.352045,5.203176-1.533871,10.466285-2.997819,15.800428-3.926799,17.481915-3.043325,35.020435-5.759232,52.515668-8.727084,21.6651-3.677073,42.559934-9.191019,59.565705-24.404314,14.068996-12.58618,23.907082-28.140212,32.088099-44.860741,18.933654-38.699728,20.309921-79.466076,14.358678-121.19137-3.527238-24.731732-6.412958-49.594432-7.193213-74.567011-1.178706-37.739671,5.654902-74.397197,17.874817-109.978127,21.859331-63.653439,49.671014-124.733037,81.676981-183.870323,16.075681-29.70405,33.346717-58.747714,57.103964-83.281886,1.784707-1.842421,4.293064-3.844667,3.619359-7.269795-8.337512,3.088831-16.546276,9.497349-25.215645,19.542985Z"/>
        <path d="M1878.10461,2568.933201c-6.723728,22.302178-14.591755,44.14708-29.760655,62.513579-7.458477,9.033414-16.802661,14.699415-28.101366,17.52964-16.356484,4.095503-31.633043.534968-46.476744-6.228716-14.021271-6.39076-26.09357-15.769351-37.898386-25.445393-19.680612-16.131176-37.255758-34.574258-56.100621-51.625535-12.419696-11.23766-25.389898-21.739462-40.724172-28.850543-4.086624-1.895696-8.192116-4.651559-15.26546-1.025541,9.58725,2.571621,15.630615,7.174344,21.586297,11.909145,13.688303,10.882495,26.008108,23.238927,37.908375,35.980492,15.88034,17.003551,31.894978,33.875026,49.50897,49.090541,13.497401,11.660529,27.735101,22.539695,44.693147,28.709587,32.216847,11.721574,69.070823,5.715946,91.062231-28.105805,5.552792-8.541732,10.611681-17.304332,14.674997-26.681813,21.006933-48.47455,26.909341-99.924722,29.063642-151.900983.990024-23.887104,1.140969-47.896296-1.098793-71.846664-2.26529-24.224511-5.873551-48.193748-11.116682-71.934346-.631529-2.861303-1.273047-6.377442-4.970098-5.960122-3.665975.41288-3.60715,3.988953-3.556095,6.91352.024418,1.431761.523869,2.849094.632639,4.285295,1.718113,22.758344,4.220921,45.494489,4.909054,68.28502.998903,33.00931.013319,66.00974-3.317468,98.942467-2.925676,28.939334-7.249817,57.577888-15.652812,85.446176Z"/>
        <path d="M3125.671385,1067.959124c-15.224394-20.811592-30.334469-41.724185-46.174853-62.062963-15.455252-19.843766-32.807309-38.000496-54.394716-51.36804-40.410072-25.022524-84.549383-28.324454-130.262521-21.428692-21.578528,3.255314-42.553274,9.197678-63.424801,15.334273-38.88064,11.431892-78.060952,14.793756-118.282342,8.163259-22.142353-3.650436-44.604356-5.67377-67.191776-4.74257-8.347501.344067-16.721639.061044-25.083568.053275-16.960266-.016648-33.133618-3.40848-48.339143-11.116682-4.532801-2.298587-9.233195-4.086624-14.305403-5.093296-4.911274-.975595-11.45409-4.268646-13.481863,1.496135-1.863509,5.298626,5.116604,7.764807,9.451844,10.147746,23.091311,12.693839,47.622153,18.909237,74.176328,17.776037,28.686279-1.223101,57.196085.941189,85.624868,5.483978,37.75299,6.032265,75.141935,4.01781,111.989252-7.149927,19.08349-5.782539,38.426694-10.82922,57.86313-15.296537,28.927125-6.649365,58.157252-7.927961,87.498367-2.397368,37.555429,7.078894,66.174004,28.547542,90.724824,56.480204,21.130131,24.038049,38.907278,50.685456,58.663362,75.796771,5.88243,7.476235,9.812559,16.017967,12.575081,25.201217,1.335201,4.43513-.421759,9.309777,2.57606,14.480766,6.123276-6.568343,5.286417-13.597292,3.962316-20.585174-2.078828-10.971286-7.710422-20.350987-14.164447-29.172412Z"/>
        <path d="M1516.876811,1703.934125c14.020161-6.881333,27.911574-14.021271,41.917306-20.93479,13.031247-6.431826,27.078045-10.475164,41.138162-6.432936,18.617335,5.353011,36.624229,4.648229,54.679959-.780254,19.776063-5.945694,34.974929-1.297464,47.349119,15.970242,7.558367,10.547307,17.822652,19.0846,30.203502,24.424292,17.581805,7.580565,33.820641,3.637117,45.598819-11.500705,2.88905-3.7137,5.452901-7.705983,7.897994-11.733782,4.521702-7.448488,8.599446-15.174449,13.294291-22.507508,16.599551-25.932636,40.802974-39.131476,70.995377-43.163715,10.61945-1.418442,20.790504.831309,33.272354,1.206453-5.103285-6.927948-10.649418-8.512875-16.317638-9.163272-27.050297-3.107699-51.969601,2.328554-74.093087,18.87483-14.303183,10.697143-24.066907,25.010315-32.919408,40.152577-4.02336,6.882443-7.667137,14.043468-13.19773,19.941437-8.819205,9.406338-18.619555,11.602815-30.53536,6.641596-4.361877-1.814674-8.476248-4.119921-12.226575-7.070015-6.880223-5.412945-13.041236-11.498485-18.608456-18.277708-11.363078-13.833699-25.848284-19.325446-43.601013-15.657252-7.105531,1.468388-14.307623,2.485049-21.379857,4.089953-10.538428,2.392928-21.000274,2.384049-31.14691-1.254178-19.982503-7.168795-38.629805-3.569414-56.398072,6.614959-13.544017,7.762587-26.858286,15.939165-40.078214,24.245599-2.630445,1.65263-8.345281,3.053314-5.476209,7.537279,2.499478,3.909041,6.593871.268594,9.631646-1.223101Z"/>
        <path d="M775.137945,994.894908c2.534994.140956,5.085527.149835,7.624961.068813,21.051329-.671485,42.097109-1.517223,63.151767-2.039982,30.170205-.750287,60.290465-.10766,90.235361,4.194283,16.961376,2.436214,34.021532,2.665962,51.110545,2.17095,3.644887-.10544,7.258696-.326308,10.707132-1.675938,2.99005-1.169827,5.065549-3.158754,4.450668-6.540596-.600452-3.30415-3.059973-4.770318-6.355244-4.721482-2.178719.031077-4.354108.218649-6.531717.290792-15.259911.500561-30.573096,1.036639-45.718687-1.013332-36.469954-4.935691-73.036469-6.611629-109.773907-3.233117-17.43086,0-34.86283-.005549-52.2948.007769-2.177609.00111-4.389624-.116539-6.526167.20866-3.82025.580474-7.400762,2.092147-7.028949,6.689321.30522,3.771414,3.338556,5.391857,6.949036,5.593858Z"/>
        <path d="M691.114651,2501.628217c11.103112-4.364014,8.038951-12.2743,1.453959-20.989175-3.192051-4.223141-7.982346-5.855792-12.115585-3.880184-4.206492,2.011125-5.345242,5.812506-4.602724,9.996801,1.348519,7.597213,4.085919,19.266176,15.26435,14.872558Z"/>
        <path d="M775.544165,3111.576241c-1.768059.986694-3.597161,1.279706-4.609383-.707001-.909002-1.784707.190901-3.653766,1.334091-4.993406,2.440653-2.860193,6.70486-2.101026,9.614998-4.354108-6.590541-3.451765-9.984592-3.243106-14.447469.817991-8.601666,7.825851-5.085527,21.86266,6.518398,26.054724,3.245325,1.172046,6.634937,1.75696,8.965711-1.321882,3.129897-4.134349,2.704808-9.033414.872375-13.440797-1.527212-3.674854-4.867988-3.941228-8.24872-2.055521Z"/>
        <path d="M3065.618438,216.29152c-75.284001-30.214046-152.899886-52.941312-231.647861-72.054769-80.046549-19.428111-160.90665-34.709665-242.257323-47.394625-39.734148-6.195419-79.62257-11.355309-119.534301-16.367583-51.039512-6.409074-102.21665-11.397485-153.394898-16.39977-26.671824-2.607137-53.404692-4.682636-80.14311-6.507299-36.154745-2.467291-72.328358-4.718153-108.517509-6.584992-34.787357-1.795806-69.594693-3.389611-104.413127-4.335795-42.856275-1.164277-85.731418-1.661509-128.601012-2.253637-18.901467-.260825-37.810704-.043286-63.808824-.043286-31.05035,1.000013-69.195131-.863496-107.37099,1.160947-28.618575,1.517778-57.342591,1.059947-86.02665,2.231439-34.072587,1.391805-68.146283,2.551088-102.204441,4.416817-25.341063,1.38792-50.673247,2.810802-76.003211,4.397394-30.022589,1.881268-59.999673,4.212042-89.985636,6.556134-39.730818,3.105479-79.387273,6.864684-119.02708,10.941319-37.834012,3.891283-75.590331,8.35416-113.333332,13.030137-60.424762,7.486224-120.628655,16.382567-180.677163,26.40434-80.509374,13.436357-160.518187,29.343335-239.889922,48.406847-94.669382,22.737256-188.142299,49.453475-278.960354,84.827966-74.656912,29.080291-146.681159,63.198938-212.295777,109.928182-29.074741,20.706152-54.62777,44.743179-74.654692,74.124163-67.523732,99.062336,15.221064,152.995337,30.724041,163.443864,44.76085,30.167985,92.452926,54.76986,141.859786,76.288454,84.795779,36.931669,172.806916,64.15733,262.260913,86.942311,89.314151,22.749464,179.684919,40.342369,270.675007,54.990729,86.943421,13.996853,174.277523,24.832732,261.840264,33.880575,41.420074,4.279745,82.938929,7.662697,124.455564,10.919121,33.588674,2.634885,67.229512,4.673757,100.868131,6.60053,30.404392,1.742531,60.829872,3.154314,91.259792,4.368536,21.025802.839079,42.072691,1.298574,63.100712,1.96007,41.020513,1.289695,82.083202,1.736982,123.124803,2.226444,38.128133.453946,76.274025.754727,114.446554-.893463,35.522106-1.532761,71.142993-.349616,106.713934-2.306356,19.90259-1.095464,39.868445-1.248629,59.808771-2.113235,30.42437-1.319662,60.830982-2.78361,91.239814-4.462877,33.284563-1.840202,66.52806-4.076635,99.770447-6.541706,34.318983-2.543873,68.584691-5.545022,102.847069-8.734853,40.754139-3.792502,81.416157-8.301995,122.053757-13.153335,52.525658-6.270892,104.885941-13.633918,157.148554-21.803836,87.46285-13.671655,174.348557-30.254557,260.476206-50.74317,93.668259-22.2822,185.996877-48.976222,275.507479-84.753603,59.478023-23.772785,229.228707-94.506217,274.608466-199.413256,17.049239-39.413722,18.926995-74.603637-1.428432-111.095789-36.347866-65.161782-163.810128-127.291339-220.614421-150.089084ZM3277.872039,469.791498c-8.703776,21.077966-21.576308,39.485532-36.937219,56.169434-34.676368,37.661979-76.895565,65.161782-121.523228,89.243118-70.272837,37.918364-144.786573,65.536926-220.794224,89.206491-110.304436,34.35006-222.806458,59.577914-336.528253,79.62479-61.753303,10.885825-123.697507,20.390943-185.891437,28.392157-43.825211,5.638253-87.693708,10.782605-131.657656,15.226614-40.717512,4.115481-81.456113,7.871357-122.266856,10.974616-31.066998,2.361851-62.126227,4.663768-93.227631,6.551695-26.772824,1.624882-53.547868,3.015578-80.334011,4.367427-39.496631,1.991147-79.019899,2.909028-118.523189,4.427361-86.837981,3.338556-173.682621,1.563838-260.520602,1.759179-40.654248.091011-81.321816-1.496135-121.967185-2.820237-31.523164-1.02665-63.033009-2.596038-94.526205-4.341899-34.728533-1.925663-69.451517-4.054437-104.138983-6.60053-34.670819-2.544983-69.340527-5.274209-103.932544-8.709326-61.252741-6.08332-122.454428-12.616147-183.48963-20.764977-65.748915-8.777029-131.276962-18.832654-196.483141-30.952679-120.335643-22.366552-239.29835-50.180455-355.073445-90.45956-33.953828-11.812585-67.774469-24.180116-100.116733-39.854016-43.801903-21.228912-86.776937-44.106014-126.735283-72.19961-10.484044-7.370795-90.451662-80.823148,11.115572-178.722642,32.966597-31.776125,71.253982-56.298182,111.018097-78.378381,73.636921-40.887881,152.004203-70.673508,231.97417-96.401924,113.809476-36.61535,229.951946-63.855439,347.380781-85.889023,72.322808-13.570654,144.937518-25.248942,217.871877-35.0221,48.47344-6.495645,97.000156-12.434679,145.648959-17.484135,38.554332-4.001717,77.123093-7.727071,115.756227-10.918011,40.452248-3.341331,80.904496-6.456799,121.431107-8.797562,25.698448-1.485036,51.390238-2.98783,77.100895-4.288624,38.7863-1.96229,77.585918-3.228677,116.394415-4.549449,28.322234-.963387,56.634479-1.562728,84.958933-1.813564,27.980387-.247506,55.964104-.05383,83.947821-.05383,51.959612-.028302,103.949192-.306885,155.902145,1.010557,21.030241.532748,42.089339,1.104343,63.1218,1.9634,30.068095,1.228096,60.13286,2.631555,90.175427,4.379635,32.921628,1.915119,65.852135,3.865755,98.71272,6.594981,47.638801,3.956766,95.292031,7.960148,142.810964,13.118928,135.202652,14.678882,269.603961,34.590906,402.233883,65.149019,97.390838,22.43814,193.301079,49.783668,285.245675,89.602723,49.81641,21.574643,99.789315,44.182596,140.440234,80.544336,83.800205,74.957693,59.09733,132.13158,51.425754,150.715618Z"/>
        <path d="M3199.400427,399.155726c-40.153687-30.619711-84.725856-53.404692-130.828566-73.356118-74.805637-32.372231-152.394885-56.493523-231.192805-76.869482-124.070431-32.083104-249.969965-54.649992-376.831775-72.265649-64.938694-9.017321-130.058301-16.459704-195.273358-23.008624-43.596573-4.377971-87.301916-7.743164-131.000599-11.008468-35.410007-2.645983-70.869959-4.69207-106.329911-6.588321-32.951595-1.762509-65.922059-3.257534-98.900291-4.337459-25.030293-.819101-50.072795-.800787-75.109748-2.083268-23.21118-1.18814-46.510041-1.000013-69.767836-.870156-75.206309.419539-150.413727-.958392-225.622255,1.868504-40.958359,1.539421-81.938916,2.466736-122.895055,4.430135-27.878277,1.33631-55.741016,2.798594-83.604864,4.411822-31.467669,1.821333-62.886503,4.163206-94.316436,6.494535-41.181447,3.054424-82.278543,6.86191-123.35899,11.007358-43.608782,4.400723-87.113234,9.571712-130.58106,15.188877-65.786652,8.500666-131.285842,18.71667-196.510888,30.757338-99.623941,18.390917-198.211243,41.009414-294.667551,72.290621-63.319361,20.534119-125.226939,44.538872-183.620598,76.790125-36.695262,20.265525-71.457092,43.306891-99.676106,74.915517-18.711676,20.961428-32.774012,44.34908-36.536548,72.808941-1.359618,10.278713-1.485036,20.5208,4.013371,30.105831,2.99227-8.572809,1.23975-17.305442,2.513906-25.904888,3.40848-23.00474,13.632808-42.80411,28.014794-60.54574,17.982477-22.185639,39.70751-40.312402,63.391504-56.127258,45.877402-30.63636,95.679384-53.437989,147.032995-72.997068,92.133277-35.091468,187.242176-59.809881,283.463188-80.55488,103.180036-22.245018,207.346767-38.671426,312.035148-51.703782,54.25043-6.753695,108.678443-12.159981,163.093138-17.498563,36.397811-3.571634,72.893293-6.238705,109.381005-8.789238,36.50769-2.551643,73.047568-4.708718,109.597434-6.570563,35.130314-1.789147,70.280606-3.375183,105.441997-4.313042,30.487634-.812441,61.005235-1.943422,91.471782-2.006685,75.575903-.158715,151.165124-1.835207,226.744357.988359,27.555298,1.029425,55.146113.970601,82.726939,2.078274,34.782918,1.397355,69.565835,2.588824,104.334325,4.466207,25.332184,1.367387,50.654379,2.793044,75.976574,4.349668,30.73736,1.889037,61.433654,4.165426,92.129948,6.59942,32.496539,2.57606,64.945353,5.560561,97.394167,8.66493,45.79527,4.381855,91.468452,9.724877,137.122766,15.350367,48.197077,5.939589,96.244319,12.914708,144.152824,20.743334,69.786704,11.403034,139.218242,24.754485,208.063758,40.979447,87.337432,20.582954,173.571632,44.848532,256.93565,78.423887,46.229238,18.619555,91.206517,39.854016,132.767548,67.615755,30.047007,20.070184,58.184999,42.343505,78.001018,73.380536.771375,1.208673,1.719223,2.36962,2.802478,3.2986,1.802465,1.54275,3.987843,1.916784,6.047804.642628,2.347422-1.450629,3.81803-3.707041,2.566071-6.429607-1.356289-2.947874-3.140995-5.733704-4.998955-8.409655-15.284328-21.996957-34.383356-40.240259-55.59229-56.412501Z"/>
        <path d="M3135.689274,582.782983c-2.190928-1.839092-4.84801-3.147655-7.370795-4.564987-42.153713-23.688433-85.579363-44.734213-130.345763-63.036338-97.671641-39.931709-198.585277-69.491473-301.084949-93.882468-91.043363-21.6651-182.955772-38.800728-275.489721-52.840867-72.002049-10.925781-144.249385-19.740546-216.657655-27.250078-41.781899-4.33302-83.669238-7.724851-125.556577-10.93022-35.042633-2.6815-70.13965-4.756999-105.238887-6.588321-34.767379-1.815784-69.558066-3.386282-104.357632-4.337459-36.31013-.992244-72.640237-1.44841-108.958136-2.06218-54.132782-.915661-108.295531-.691463-162.426092,1.487256-37.33678,1.23309-74.697978,1.822443-112.026989,3.866865-27.507573,1.507234-55.028465,2.740324-82.536038,4.412932-30.745129,1.870169-61.449192,4.091063-92.148816,6.583882-31.412175,2.550533-62.768854,5.549462-94.122205,8.723754-42.889572,4.344119-85.657055,9.572822-128.382363,15.289878-74.038702,9.90579-147.651205,22.222266-220.818641,37.257978-100.330943,20.617361-199.37996,45.89849-295.778554,80.872309-63.287174,22.960344-124.734147,49.899652-182.121133,85.408439-28.77285,17.802674-56.308171,37.322352-80.4561,61.242752-1.805795,1.788037-3.578293,3.617139-5.273099,5.510616-1.278596,1.428432-2.024444,3.163193-.648177,4.861329,1.456179,1.795806,3.258644,1.146519,4.782526.005549,1.44841-1.083255,2.693709-2.432884,4.092173-3.587172,10.353076-8.543952,20.42202-17.468596,31.139141-25.529745,44.667619-33.604212,93.75927-59.489122,144.749946-81.951125,104.059071-45.838556,212.700888-77.313994,323.273918-102.602892,70.006463-16.011308,140.611157-28.862752,211.586556-39.872884,64.448122-9.996801,129.119332-18.116774,193.948146-24.991447,40.33016-4.277525,80.7591-7.721521,121.19359-10.902473,34.315653-2.699258,68.686801-4.753669,103.061278-6.5972,33.676355-1.806905,67.377128-3.317468,101.08567-4.351888,36.666405-1.126541,73.356118-2.178719,110.034732-2.127664,45.048312.063264,90.089966-.435078,135.164915.937859,48.605518,1.479487,97.228793,2.129884,145.819882,4.53724,27.877167,1.381816,55.747675,2.731445,83.612634,4.399613,30.742909,1.839092,61.438093,4.155437,92.143267,6.512849,39.733038,3.049984,79.375064,6.892432,119.007102,11.000144,52.968505,5.490638,105.774965,12.164421,158.497073,19.633996,79.704702,11.292045,158.961008,25.069139,237.723412,41.701987,109.117961,23.044696,216.80638,51.294787,321.609079,89.7348,61.754413,22.650684,122.447768,47.798626,179.386358,81.17198,1.55052.909002,3.172072,1.851301,4.885746,2.289708,2.68483.685913,4.967878-.173143,6.50064-2.68594,1.689256-2.765852.475034-5.094406-1.499465-6.750366Z"/>
        <path d="M2418.197116,722.041182c-6.3952-2.594928-12.78707-5.205395-19.141204-7.900214-34.478807-14.619503-69.364945-28.874961-100.25103-50.163807-32.576452-22.456453-64.917606-45.496709-94.921327-71.421576-24.890447-21.506385-51.998459-39.568774-80.423913-55.928588-19.831557-11.415243-41.472239-14.984657-63.176185-16.577353-17.254387.601562-32.849485,4.931252-47.13158,13.639468-11.831453,7.213191-22.89486,15.524065-32.961584,25.015865-21.420923,20.200042-42.886242,40.344589-62.749986,62.149534-25.004766,27.447639-51.727645,53.299253-81.032134,76.01764-35.88948,27.821673-72.640237,54.601156-111.000338,79.00769-15.936945,10.139977-32.350034,19.531886-48.495638,29.348885-3.08994,1.879048-6.230936,3.846887-8.826974,6.320837-3.431787,3.269743-4.580526,7.377455-1.990037,11.86031,2.451752,4.244229,6.996762,5.757012,12.334234,3.953437,1.697025-.572704,3.281952-1.539421,4.833581-2.467291,16.218858-9.69602,32.360023-19.525227,48.642144-29.114697,28.889389-17.012431,54.760981-38.356771,82.383983-57.189425,41.339052-28.185717,78.259623-61.601248,112.353297-98.027916,20.643999-22.058001,42.08601-43.239188,63.932022-64.04967,9.760394-9.296459,20.31991-17.629531,31.758461-24.791666,13.687193-8.569479,28.477619-11.829233,44.708685-10.913572,29.413258,1.660399,53.493484,15.215515,75.828958,32.69521,30.028139,23.501971,59.573474,47.65545,90.666,69.735649,23.089091,16.39644,45.468962,33.957158,70.292815,47.746461,34.031521,18.903687,69.450407,34.937193,105.687283,49.151585,2.691489,1.055508,5.452901,2.139873,8.280907,2.598258,4.693735.761386,8.707106-.572704,10.742648-5.356341,1.842421-4.33413-.108769-7.775906-2.956753-10.83366-2.016674-2.1654-4.667098-3.40071-7.386334-4.505053Z"/>
        <path d="M2337.408049,767.684396c-8.207654.10766-15.824846-2.206466-23.337707-4.766988-15.458581-5.268659-30.691854-11.202144-46.121578-16.558485-41.917306-14.554019-76.710213-39.213608-104.844875-73.411613-9.729317-11.825903-20.822691-22.285529-32.263462-32.402199-3.001149-2.653753-6.08998-5.15434-9.992361-6.456244-3.829129-1.278596-7.31863-.648177-10.038977,2.196477-2.844654,2.972292-2.522785,6.691541-1.091024,10.220999,1.5483,3.81803,4.671537,6.426277,7.687115,9.050063,12.910268,11.234331,24.485336,23.7184,35.728546,36.6209,24.669578,28.313355,53.808693,50.797555,88.683732,65.351574,22.121265,9.232085,44.654301,17.380915,67.369358,25.011425,8.259819,2.773621,16.70499,4.975648,25.745064,5.662671.448397,0,1.174266.014429,1.900136-.00222,8.013423-.188682,12.812598-3.941228,13.009049-10.167724.200891-6.361903-4.2298-10.456296-12.433015-10.348637Z"/>
      </g>
    </g>
  </g>
</svg>